<?xml version="1.0" encoding="UTF-8"?><svg id="Layer_1" xmlns="http://www.w3.org/2000/svg" width="490.96" height="236.13" viewBox="0 0 490.96 236.13"><defs><style>.cls-1,.cls-2{fill:#fff;}.cls-3{fill:#808285;}.cls-4{fill:#603a17;}.cls-5{fill:#ccc;}.cls-2{font-family:BerlinSansFB-Reg, 'Berlin Sans FB';font-size:219.13px;stroke:#c39e2e;stroke-miterlimit:10;stroke-width:7px;}</style></defs><text class="cls-2" transform="translate(104.69 188.12) scale(1.08 1)"><tspan x="0" y="0">RB</tspan></text><rect class="cls-5" x="62.16" y="77.84" width="37.8" height="11.87" transform="translate(-.24 .23) rotate(-.16)"/><rect class="cls-5" x="67.47" y="69.08" width="27.12" height="8.76" transform="translate(-.21 .23) rotate(-.16)"/><rect class="cls-1" x="77.62" y="89.71" width="7.05" height="51.49" transform="translate(-.33 .23) rotate(-.16)"/><rect class="cls-1" x="77.48" y="63.42" width="7.05" height="5.66" transform="translate(-.19 .23) rotate(-.16)"/><rect class="cls-1" x="77.76" y="161.1" width="7.05" height="5.66" transform="translate(-.46 .23) rotate(-.16)"/><rect class="cls-5" x="62.34" y="141.2" width="37.8" height="11.14" transform="translate(-.42 .23) rotate(-.16)"/><rect class="cls-5" x="67.7" y="152.34" width="27.12" height="8.76" transform="translate(-.44 .23) rotate(-.16)"/><path class="cls-4" d="m87.32,166.74v-3.52s7.52-.02,7.52-.02c1.38,0,2.5-.97,2.5-2.15l-.02-6.62h2.83c1.38-.01,2.5-.98,2.5-2.16l-.03-11.14c0-1.18-1.13-2.14-2.51-2.14l-12.87.04-.13-47.2,12.87-.04c1.38,0,2.5-.97,2.5-2.15l-.03-11.87c0-1.18-1.13-2.14-2.51-2.14h-2.83s-.02-6.61-.02-6.61c0-1.18-1.13-2.14-2.51-2.14l-7.53.02v-3.52c-.01-1.18-1.14-2.14-2.52-2.14l-7.05.02c-1.38,0-2.5.97-2.5,2.15v3.52s-7.52.02-7.52.02c-1.38,0-2.5.97-2.5,2.15l.02,6.62h-2.83c-1.38.01-2.5.97-2.5,2.16l.03,11.87c0,1.18,1.13,2.14,2.51,2.14l12.87-.04.13,47.2-12.87.04c-1.38,0-2.5.97-2.5,2.15l.03,11.14c0,1.18,1.13,2.14,2.51,2.14h2.83s.02,6.61.02,6.61c0,1.18,1.13,2.14,2.51,2.14l7.53-.02v3.52c.01,1.18,1.14,2.14,2.52,2.14l7.05-.02c1.38,0,2.51-.97,2.5-2.15Zm-7.33-101.18h2.03s0,1.37,0,1.37h-2.03s0-1.37,0-1.37Zm12.08,5.63v4.48s-22.09.06-22.09.06v-4.48s22.09-.06,22.09-.06Zm5.36,8.75l.02,7.58-32.78.09-.02-7.58,32.78-.09Zm-17.37,11.92h2.03s.13,47.19.13,47.19h-2.03s-.13-47.19-.13-47.19Zm-15.21,58.38l-.02-6.85,32.78-.09.02,6.85-32.78.09Zm5.36,8.75v-4.48s22.09-.06,22.09-.06v4.48s-22.09.06-22.09.06Zm10.05,5.63v-1.37s2.03,0,2.03,0v1.37s-2.03,0-2.03,0Z"/><path class="cls-4" d="m85,146.81c0-1.18-1.13-2.14-2.51-2.14l-13.79.04c-1.38,0-2.5.97-2.5,2.15s1.13,2.14,2.51,2.14l13.79-.04c1.38,0,2.5-.97,2.5-2.15Z"/><path class="cls-4" d="m92.52,146.79c0-1.18-1.13-2.14-2.51-2.14h-.75c-1.38,0-2.5.97-2.5,2.15s1.13,2.14,2.51,2.14h.75c1.38,0,2.5-.97,2.5-2.15Z"/><g id="Layer_1-2"><path class="cls-3" d="m0,108.54v11.98c3.97.08,7.23,1.1,9.74,3.08,2.49,1.96,4.16,4.61,5,7.95.82,3.36,1.27,9.12,1.3,17.3.05,8.2.21,13.56.48,16.17.47,4.16,1.32,7.47,2.59,9.95,1.27,2.48,2.83,4.46,4.69,5.94,1.88,1.5,4.26,2.63,7.14,3.41,1.96.55,5.16.83,9.6.83h4.34v-11.53h-2.41c-5.37,0-8.92-.93-10.69-2.75-1.75-1.83-2.62-5.97-2.62-12.38,0-12.23-.24-20-.71-23.28-.82-5.41-2.48-9.78-4.95-13.04-2.49-3.23-6.01-5.76-10.56-7.59,5.95-2.68,10.13-6.24,12.57-10.68,2.44-4.44,3.65-11.91,3.65-22.43,0-9.55.11-15.24.37-17.12.37-3.28,1.38-5.56,3.07-6.87,1.67-1.28,4.98-1.93,9.87-1.93h2.41v-11.53h-4.34c-5.05,0-8.73.38-11.01,1.18-3.31,1.08-6.03,2.88-8.2,5.41-2.17,2.56-3.6,5.76-4.24,9.63-.64,3.88-1,10.23-1.06,19.02-.03,8.82-.48,14.89-1.3,18.25-.85,3.36-2.52,6.02-5,7.97-2.51,1.95-5.77,2.98-9.74,3.08h0Z"/></g><rect class="cls-5" x="399.91" y="78.21" width="37.8" height="11.87" transform="translate(-.24 1.19) rotate(-.16)"/><rect class="cls-5" x="405.22" y="69.45" width="27.12" height="8.76" transform="translate(-.21 1.19) rotate(-.16)"/><rect class="cls-1" x="415.38" y="90.08" width="7.05" height="51.49" transform="translate(-.33 1.19) rotate(-.16)"/><rect class="cls-1" x="415.24" y="63.79" width="7.05" height="5.66" transform="translate(-.19 1.19) rotate(-.16)"/><rect class="cls-1" x="415.52" y="161.47" width="7.05" height="5.66" transform="translate(-.46 1.19) rotate(-.16)"/><rect class="cls-5" x="400.09" y="141.57" width="37.8" height="11.14" transform="translate(-.42 1.19) rotate(-.16)"/><rect class="cls-5" x="405.46" y="152.7" width="27.12" height="8.76" transform="translate(-.44 1.19) rotate(-.16)"/><path class="cls-4" d="m425.08,167.11v-3.52s7.52-.02,7.52-.02c1.38,0,2.5-.97,2.5-2.15l-.02-6.62h2.83c1.38-.01,2.5-.98,2.5-2.16l-.03-11.14c0-1.18-1.13-2.14-2.51-2.14l-12.87.04-.13-47.2,12.87-.04c1.38,0,2.5-.97,2.5-2.15l-.03-11.87c0-1.18-1.13-2.14-2.51-2.14h-2.83s-.02-6.61-.02-6.61c0-1.18-1.13-2.14-2.51-2.14l-7.53.02v-3.52c-.01-1.18-1.14-2.14-2.52-2.14l-7.05.02c-1.38,0-2.5.97-2.5,2.15v3.52s-7.52.02-7.52.02c-1.38,0-2.5.97-2.5,2.15l.02,6.62h-2.83c-1.38.01-2.5.97-2.5,2.16l.03,11.87c0,1.18,1.13,2.14,2.51,2.14l12.87-.04.13,47.2-12.87.04c-1.38,0-2.5.97-2.5,2.15l.03,11.14c0,1.18,1.13,2.14,2.51,2.14h2.83s.02,6.61.02,6.61c0,1.18,1.13,2.14,2.51,2.14l7.53-.02v3.52c.01,1.18,1.14,2.14,2.52,2.14l7.05-.02c1.38,0,2.51-.97,2.5-2.15Zm-7.33-101.18h2.03s0,1.37,0,1.37h-2.03s0-1.37,0-1.37Zm12.08,5.63v4.48s-22.09.06-22.09.06v-4.48s22.09-.06,22.09-.06Zm5.36,8.75l.02,7.58-32.78.09-.02-7.58,32.78-.09Zm-17.37,11.92h2.03s.13,47.19.13,47.19h-2.03s-.13-47.19-.13-47.19Zm-15.21,58.38l-.02-6.85,32.78-.09.02,6.85-32.78.09Zm5.36,8.75v-4.48s22.09-.06,22.09-.06v4.48s-22.09.06-22.09.06Zm10.05,5.63v-1.37s2.03,0,2.03,0v1.37s-2.03,0-2.03,0Z"/><path class="cls-4" d="m422.75,147.18c0-1.18-1.13-2.14-2.51-2.14l-13.79.04c-1.38,0-2.5.97-2.5,2.15s1.13,2.14,2.51,2.14l13.79-.04c1.38,0,2.5-.97,2.5-2.15Z"/><path class="cls-4" d="m430.28,147.15c0-1.18-1.13-2.14-2.51-2.14h-.75c-1.38,0-2.5.97-2.5,2.15s1.13,2.14,2.51,2.14h.75c1.38,0,2.5-.97,2.5-2.15Z"/><g id="Layer_1-3"><path class="cls-3" d="m490.96,108.54c-3.97-.1-7.23-1.13-9.74-3.08-2.49-1.96-4.16-4.61-5-7.97-.82-3.36-1.27-9.43-1.3-18.25-.05-8.79-.42-15.14-1.06-19.02-.63-3.86-2.07-7.07-4.24-9.63-2.17-2.53-4.89-4.34-8.2-5.41-2.28-.8-5.95-1.18-11.01-1.18h-4.34s0,11.53,0,11.53h2.41c4.9,0,8.2.65,9.87,1.93,1.69,1.31,2.7,3.59,3.07,6.87.26,1.88.37,7.57.37,17.12,0,10.53,1.22,18,3.65,22.43,2.44,4.44,6.62,8,12.57,10.68-4.55,1.83-8.07,4.36-10.56,7.59-2.46,3.26-4.13,7.62-4.95,13.04-.48,3.28-.71,11.05-.71,23.28,0,6.42-.87,10.55-2.62,12.38-1.77,1.83-5.32,2.75-10.69,2.75h-2.41s0,11.53,0,11.53h4.34c4.44,0,7.65-.28,9.6-.83,2.88-.78,5.27-1.91,7.14-3.41,1.85-1.48,3.42-3.46,4.69-5.94,1.27-2.48,2.12-5.79,2.59-9.95.27-2.61.42-7.97.48-16.17.03-8.17.48-13.94,1.3-17.3.85-3.33,2.52-5.99,5-7.95,2.51-1.98,5.77-3,9.74-3.08v-11.98h0Z"/></g></svg>