<svg xmlns="http://www.w3.org/2000/svg" version="1.1" xmlns:xlink="http://www.w3.org/1999/xlink" xmlns:svgjs="http://svgjs.dev/svgjs" width="2000" height="469" viewBox="0 0 2000 469"><g transform="matrix(1,0,0,1,-1.2121007939130095,0.41671972235081967)"><svg viewBox="0 0 396 93" data-background-color="#ffffff" preserveAspectRatio="xMidYMid meet" height="469" width="2000" xmlns="http://www.w3.org/2000/svg" xmlns:xlink="http://www.w3.org/1999/xlink"><g id="tight-bounds" transform="matrix(1,0,0,1,0.23999595719476474,-0.08263312191604655)"><svg viewBox="0 0 395.52 93.16526624383212" height="93.16526624383212" width="395.52"><g><svg viewBox="0 0 550.2719156661733 129.6172874432205" height="93.16526624383212" width="395.52"><g transform="matrix(1,0,0,1,154.75191566617337,38.19154983769907)"><svg viewBox="0 0 395.52 53.234187767822355" height="53.234187767822355" width="395.52"><g id="textblocktransform"><svg viewBox="0 0 395.52 53.234187767822355" height="53.234187767822355" width="395.52" id="textblock"><g><svg viewBox="0 0 395.52 53.234187767822355" height="53.234187767822355" width="395.52"><g transform="matrix(1,0,0,1,0,0)"><svg width="395.52" viewBox="1.850000023841858 -34.099998474121094 256.67999267578125 34.54999923706055" height="53.234187767822355" data-palette-color="#61777f"><path d="M1.85-33.95L1.85-33.95Q2.8-33.9 4.35-33.85 5.9-33.8 7.2-33.8L7.2-33.8Q8.5-33.8 10.4-33.83 12.3-33.85 14.23-33.88 16.15-33.9 17.55-33.9L17.55-33.9Q22.3-33.9 25.18-33.1 28.05-32.3 29.38-30.6 30.7-28.9 30.7-26.25L30.7-26.25Q30.7-23.3 28.68-21.15 26.65-19 22.9-18.45L22.9-18.45Q26.25-18.25 28.43-17.23 30.6-16.2 31.65-14.33 32.7-12.45 32.7-9.75L32.7-9.75Q32.7-6.9 31.23-4.7 29.75-2.5 26.5-1.25 23.25 0 17.85 0L17.85 0Q15.85 0 13.73 0 11.6 0 9.5 0.03 7.4 0.05 5.48 0.08 3.55 0.1 1.85 0.15L1.85 0.15Q1.85-0.85 1.93-1.78 2-2.7 2.2-3.3L2.2-3.3Q3.55-3.4 4.28-3.83 5-4.25 5.28-5.38 5.55-6.5 5.55-8.7L5.55-8.7 5.55-25.3Q5.55-27.4 5.28-28.45 5-29.5 4.28-29.93 3.55-30.35 2.15-30.5L2.15-30.5Q2-31.15 1.93-32.18 1.85-33.2 1.85-33.95ZM13.5-29.75L14.2-31.95 14.2-8.4Q14.2-6.25 14.65-5.15 15.1-4.05 15.95-3.68 16.8-3.3 17.95-3.3L17.95-3.3Q20.25-3.3 21.68-4.85 23.1-6.4 23.1-9.15L23.1-9.15Q23.1-11.1 22.55-12.38 22-13.65 20.98-14.38 19.95-15.1 18.53-15.43 17.1-15.75 15.4-15.75L15.4-15.75 12.55-15.75 12.55-19.1 15.95-19.1Q18-19.1 19.33-19.8 20.65-20.5 21.3-21.8 21.95-23.1 21.95-24.9L21.95-24.9Q21.95-26.75 21.18-28 20.4-29.25 19.18-29.85 17.95-30.45 16.45-30.45L16.45-30.45Q15.6-30.45 14.93-30.3 14.25-30.15 13.5-29.75L13.5-29.75ZM53.5-34.1L53.5-34.1 64.8-9Q65.95-6.65 66.6-5.43 67.25-4.2 67.82-3.8 68.4-3.4 69.1-3.3L69.1-3.3Q69.3-2.65 69.4-1.78 69.5-0.9 69.5 0.15L69.5 0.15Q68.6 0.05 67.2 0.03 65.8 0 64.4 0 63 0 62.2 0L62.2 0Q61.6 0 60.52 0 59.45 0 58.22 0.03 57 0.05 55.9 0.08 54.8 0.1 54.2 0.15L54.2 0.15Q54.2-1.05 54.3-1.85 54.4-2.65 54.6-3.3L54.6-3.3Q56.35-3.65 56.67-4.48 57-5.3 56.2-7.15L56.2-7.15 51.7-17.4Q50.55-20.05 49.82-22.33 49.1-24.6 48.6-26.8L48.6-26.8 50.05-26.8Q49.45-24.55 48.72-22.25 48-19.95 46.95-17.45L46.95-17.45 43.15-7.55Q42.5-5.95 42.9-4.75 43.3-3.55 45-3.3L45-3.3Q45.2-2.6 45.3-1.75 45.4-0.9 45.4 0.15L45.4 0.15Q44.85 0.1 43.85 0.08 42.85 0.05 41.77 0.03 40.7 0 39.85 0L39.85 0Q38.6 0 37.27 0.03 35.95 0.05 35.2 0.15L35.2 0.15Q35.2-0.85 35.3-1.65 35.4-2.45 35.65-3.3L35.65-3.3Q36.5-3.45 37.1-3.93 37.7-4.4 38.27-5.45 38.85-6.5 39.65-8.45L39.65-8.45 50.2-33.85Q51.05-34.05 51.77-34.08 52.5-34.1 53.5-34.1ZM42.95-12L55.35-12 56.25-9Q52.9-9 49.27-8.9 45.65-8.8 42.2-8.45L42.2-8.45 42.95-12ZM88.45-3.35L89.15-3.35Q91.15-3.35 92.47-4.03 93.8-4.7 94.67-6.18 95.55-7.65 96.25-10.05L96.25-10.05Q97.65-9.9 98.82-9.47 100-9.05 100.6-8.45L100.6-8.45Q100.05-6.75 99.65-4.45 99.25-2.15 99.05 0.1L99.05 0.1Q97.7 0.05 95.6 0.05 93.5 0.05 91.2 0.03 88.9 0 86.85 0L86.85 0Q85.5 0 83.37 0.03 81.25 0.05 78.97 0.08 76.7 0.1 74.8 0.13 72.9 0.15 72.05 0.15L72.05 0.15Q72.05-0.85 72.12-1.78 72.2-2.7 72.4-3.3L72.4-3.3Q73.75-3.4 74.47-3.83 75.2-4.25 75.47-5.38 75.75-6.5 75.75-8.7L75.75-8.7 75.75-25.3Q75.75-27.4 75.47-28.45 75.2-29.5 74.47-29.93 73.75-30.35 72.35-30.5L72.35-30.5Q72.2-31.15 72.12-32.18 72.05-33.2 72.05-33.95L72.05-33.95Q73.5-33.9 74.72-33.88 75.95-33.85 77.22-33.83 78.5-33.8 80.05-33.8L80.05-33.8Q81.25-33.8 82.72-33.83 84.2-33.85 85.65-33.88 87.1-33.9 88.1-33.95L88.1-33.95Q88.1-33.05 88.05-32.13 88-31.2 87.7-30.5L87.7-30.5Q86.35-30.35 85.62-29.95 84.9-29.55 84.65-28.45 84.4-27.35 84.4-25.25L84.4-25.25 84.4-8.9Q84.4-6.75 84.75-5.53 85.1-4.3 85.97-3.83 86.85-3.35 88.45-3.35L88.45-3.35ZM125.14 0.45L125.14 0.45Q124.54-0.85 123.99-2.08 123.44-3.3 122.94-4.53 122.44-5.75 121.89-7.05L121.89-7.05Q121.14-8.85 120.49-10.08 119.84-11.3 119.04-12.23 118.24-13.15 117.04-14.05L117.04-14.05 119.29-13.65Q117.94-13.6 116.92-13.58 115.89-13.55 114.59-13.6L114.59-13.6 114.99-17.25Q115.74-17.15 116.19-17.1 116.64-17.05 117.04-17.05L117.04-17.05Q118.84-17.05 120.37-17.78 121.89-18.5 122.87-20.03 123.84-21.55 123.84-23.85L123.84-23.85Q123.84-27 122.32-28.8 120.79-30.6 117.89-30.6L117.89-30.6Q117.09-30.6 116.42-30.5 115.74-30.4 114.99-30.15L114.99-30.15 115.39-31.8 115.39-8.95Q115.39-6.5 115.64-5.3 115.89-4.1 116.47-3.73 117.04-3.35 118.04-3.3L118.04-3.3Q118.24-2.8 118.29-1.8 118.34-0.8 118.34 0.15L118.34 0.15Q117.39 0.1 115.89 0.08 114.39 0.05 112.89 0.03 111.39 0 110.34 0L110.34 0Q108.49 0 106.57 0.03 104.64 0.05 103.04 0.15L103.04 0.15Q103.04-0.95 103.12-1.8 103.19-2.65 103.39-3.3L103.39-3.3Q104.74-3.4 105.47-3.83 106.19-4.25 106.47-5.35 106.74-6.45 106.74-8.6L106.74-8.6 106.74-25.35Q106.74-27.45 106.47-28.53 106.19-29.6 105.47-30 104.74-30.4 103.34-30.55L103.34-30.55Q103.14-31.25 103.09-32.35 103.04-33.45 103.04-33.95L103.04-33.95Q104.34-33.9 106.47-33.85 108.59-33.8 110.94-33.8L110.94-33.8Q112.54-33.8 115.22-33.9 117.89-34 120.79-34L120.79-34Q124.99-34 127.67-32.77 130.34-31.55 131.59-29.48 132.84-27.4 132.84-24.85L132.84-24.85Q132.84-21.8 131.67-19.58 130.49-17.35 128.44-16.1 126.39-14.85 123.79-14.5L123.79-14.5 124.74-15.15Q126.24-14.45 127.17-13.63 128.09-12.8 129.02-11.33 129.94-9.85 131.34-7.15L131.34-7.15Q132.09-5.75 132.69-4.98 133.29-4.2 134.04-3.88 134.79-3.55 135.94-3.45L135.94-3.45Q135.94-2.5 135.84-1.65 135.74-0.8 135.49 0L135.49 0Q132.09 0 129.42 0.1 126.74 0.2 125.14 0.45ZM138.49-33.95L138.49-33.95Q139.54-33.9 141.14-33.88 142.74-33.85 144.52-33.83 146.29-33.8 147.94-33.8 149.59-33.8 150.84-33.8L150.84-33.8 150.84-8.9Q150.84-6.75 151.19-5.53 151.54-4.3 152.42-3.83 153.29-3.35 154.89-3.35L154.89-3.35 153.29 0Q151.94 0 149.82 0.03 147.69 0.05 145.42 0.08 143.14 0.1 141.24 0.13 139.34 0.15 138.49 0.15L138.49 0.15Q138.49-0.85 138.57-1.78 138.64-2.7 138.84-3.3L138.84-3.3Q140.19-3.4 140.92-3.83 141.64-4.25 141.92-5.38 142.19-6.5 142.19-8.7L142.19-8.7 142.19-25.3Q142.19-27.4 141.92-28.45 141.64-29.5 140.92-29.93 140.19-30.35 138.79-30.5L138.79-30.5Q138.59-31.15 138.54-32.18 138.49-33.2 138.49-33.95ZM162.94-10.05L162.94-10.05Q164.34-9.9 165.52-9.47 166.69-9.05 167.29-8.45L167.29-8.45Q166.74-6.75 166.34-4.45 165.94-2.15 165.74 0.1L165.74 0.1Q164.39 0.05 162.29 0.05 160.19 0.05 157.82 0.03 155.44 0 153.29 0L153.29 0 154.89-3.35 155.59-3.35Q157.79-3.35 159.17-4.08 160.54-4.8 161.39-6.28 162.24-7.75 162.94-10.05ZM159.99-22.75L159.99-22.75Q159.94-21.55 159.87-20.15 159.79-18.75 159.79-17L159.79-17Q159.79-15.1 159.87-13.68 159.94-12.25 159.99-11.1L159.99-11.1Q158.79-11.1 157.89-11.2 156.99-11.3 156.19-11.55L156.19-11.55Q155.99-13.75 155.04-14.48 154.09-15.2 151.64-15.2L151.64-15.2 148.64-15.2 148.64-18.55 151.64-18.55Q154.29-18.55 155.17-19.35 156.04-20.15 156.09-22.2L156.09-22.2Q156.89-22.55 157.94-22.65 158.99-22.75 159.99-22.75ZM164.34-33.95L164.34-33.95Q164.39-32.75 164.54-31.15 164.69-29.55 164.89-28.03 165.09-26.5 165.39-25.3L165.39-25.3Q164.59-24.95 163.57-24.73 162.54-24.5 161.04-24.5L161.04-24.5Q160.79-26.2 160.12-27.58 159.44-28.95 157.99-29.73 156.54-30.5 153.84-30.5L153.84-30.5 148.89-30.5 150.44-33.8Q154.24-33.8 156.87-33.83 159.49-33.85 161.29-33.88 163.09-33.9 164.34-33.95ZM173.94-8.6L173.94-25.3Q173.94-27.4 173.69-28.45 173.44-29.5 172.71-29.93 171.99-30.35 170.64-30.5L170.64-30.5Q170.44-31.15 170.34-32.13 170.24-33.1 170.24-33.95L170.24-33.95Q171.09-33.9 172.56-33.88 174.04-33.85 175.66-33.83 177.29-33.8 178.44-33.8L178.44-33.8Q179.59-33.8 181.04-33.83 182.49-33.85 183.89-33.88 185.29-33.9 186.29-33.95L186.29-33.95Q186.29-33.05 186.24-32.2 186.19-31.35 185.89-30.5L185.89-30.5Q184.54-30.35 183.81-29.95 183.09-29.55 182.84-28.48 182.59-27.4 182.59-25.3L182.59-25.3 182.59-8.6Q182.59-6.45 182.84-5.35 183.09-4.25 183.84-3.83 184.59-3.4 185.89-3.3L185.89-3.3Q186.09-2.7 186.19-1.73 186.29-0.75 186.29 0.15L186.29 0.15Q185.09 0.05 183.09 0.03 181.09 0 178.79 0L178.79 0Q176.49 0 174.16 0.03 171.84 0.05 170.24 0.15L170.24 0.15Q170.24-0.7 170.36-1.7 170.49-2.7 170.64-3.3L170.64-3.3Q171.99-3.4 172.71-3.83 173.44-4.25 173.69-5.35 173.94-6.45 173.94-8.6L173.94-8.6ZM212.04 0.45L212.04 0.45Q211.44-0.85 210.89-2.08 210.34-3.3 209.84-4.53 209.34-5.75 208.79-7.05L208.79-7.05Q208.04-8.85 207.39-10.08 206.74-11.3 205.94-12.23 205.14-13.15 203.94-14.05L203.94-14.05 206.19-13.65Q204.84-13.6 203.81-13.58 202.79-13.55 201.49-13.6L201.49-13.6 201.89-17.25Q202.64-17.15 203.09-17.1 203.54-17.05 203.94-17.05L203.94-17.05Q205.74-17.05 207.26-17.78 208.79-18.5 209.76-20.03 210.74-21.55 210.74-23.85L210.74-23.85Q210.74-27 209.21-28.8 207.69-30.6 204.79-30.6L204.79-30.6Q203.99-30.6 203.31-30.5 202.64-30.4 201.89-30.15L201.89-30.15 202.29-31.8 202.29-8.95Q202.29-6.5 202.54-5.3 202.79-4.1 203.36-3.73 203.94-3.35 204.94-3.3L204.94-3.3Q205.14-2.8 205.19-1.8 205.24-0.8 205.24 0.15L205.24 0.15Q204.29 0.1 202.79 0.08 201.29 0.05 199.79 0.03 198.29 0 197.24 0L197.24 0Q195.39 0 193.46 0.03 191.54 0.05 189.94 0.15L189.94 0.15Q189.94-0.95 190.01-1.8 190.09-2.65 190.29-3.3L190.29-3.3Q191.64-3.4 192.36-3.83 193.09-4.25 193.36-5.35 193.64-6.45 193.64-8.6L193.64-8.6 193.64-25.35Q193.64-27.45 193.36-28.53 193.09-29.6 192.36-30 191.64-30.4 190.24-30.55L190.24-30.55Q190.04-31.25 189.99-32.35 189.94-33.45 189.94-33.95L189.94-33.95Q191.24-33.9 193.36-33.85 195.49-33.8 197.84-33.8L197.84-33.8Q199.44-33.8 202.11-33.9 204.79-34 207.69-34L207.69-34Q211.89-34 214.56-32.77 217.24-31.55 218.49-29.48 219.74-27.4 219.74-24.85L219.74-24.85Q219.74-21.8 218.56-19.58 217.39-17.35 215.34-16.1 213.29-14.85 210.69-14.5L210.69-14.5 211.64-15.15Q213.14-14.45 214.06-13.63 214.99-12.8 215.91-11.33 216.84-9.85 218.24-7.15L218.24-7.15Q218.99-5.75 219.59-4.98 220.19-4.2 220.94-3.88 221.69-3.55 222.84-3.45L222.84-3.45Q222.84-2.5 222.74-1.65 222.64-0.8 222.39 0L222.39 0Q218.99 0 216.31 0.1 213.64 0.2 212.04 0.45ZM242.53-34.1L242.53-34.1 253.83-9Q254.98-6.65 255.63-5.43 256.28-4.2 256.86-3.8 257.43-3.4 258.13-3.3L258.13-3.3Q258.33-2.65 258.43-1.78 258.53-0.9 258.53 0.15L258.53 0.15Q257.63 0.05 256.23 0.03 254.83 0 253.43 0 252.03 0 251.23 0L251.23 0Q250.63 0 249.56 0 248.48 0 247.26 0.03 246.03 0.05 244.93 0.08 243.83 0.1 243.23 0.15L243.23 0.15Q243.23-1.05 243.33-1.85 243.43-2.65 243.63-3.3L243.63-3.3Q245.38-3.65 245.71-4.48 246.03-5.3 245.23-7.15L245.23-7.15 240.73-17.4Q239.58-20.05 238.86-22.33 238.13-24.6 237.63-26.8L237.63-26.8 239.08-26.8Q238.48-24.55 237.76-22.25 237.03-19.95 235.98-17.45L235.98-17.45 232.18-7.55Q231.53-5.95 231.93-4.75 232.33-3.55 234.03-3.3L234.03-3.3Q234.23-2.6 234.33-1.75 234.43-0.9 234.43 0.15L234.43 0.15Q233.88 0.1 232.88 0.08 231.88 0.05 230.81 0.03 229.73 0 228.88 0L228.88 0Q227.63 0 226.31 0.03 224.98 0.05 224.23 0.15L224.23 0.15Q224.23-0.85 224.33-1.65 224.43-2.45 224.68-3.3L224.68-3.3Q225.53-3.45 226.13-3.93 226.73-4.4 227.31-5.45 227.88-6.5 228.68-8.45L228.68-8.45 239.23-33.85Q240.08-34.05 240.81-34.08 241.53-34.1 242.53-34.1ZM231.98-12L244.38-12 245.28-9Q241.93-9 238.31-8.9 234.68-8.8 231.23-8.45L231.23-8.45 231.98-12Z" opacity="1" transform="matrix(1,0,0,1,0,0)" fill="#ffffff" class="wordmark-text-0" data-fill-palette-color="primary" id="text-0"></path></svg></g></svg></g></svg></g></svg></g><g><svg viewBox="0 0 129.6172874432205 129.6172874432205" height="129.6172874432205" width="129.6172874432205"><g><svg></svg></g><g id="icon-0"><svg viewBox="0 0 129.6172874432205 129.6172874432205" height="129.6172874432205" width="129.6172874432205"><g><path d="M0 64.809c0-35.793 29.016-64.809 64.809-64.809 35.793 0 64.809 29.016 64.808 64.809 0 35.793-29.016 64.809-64.808 64.808-35.793 0-64.809-29.016-64.809-64.808zM64.809 124.817c33.141 0 60.008-26.866 60.008-60.008 0-33.141-26.866-60.008-60.008-60.008-33.141 0-60.008 26.866-60.008 60.008 0 33.141 26.866 60.008 60.008 60.008z" data-fill-palette-color="accent" fill="#ffffff" stroke="transparent"></path></g><g transform="matrix(1,0,0,1,27.304000884487245,37.80503099108965)"><svg viewBox="0 0 75.00928567424602 54.007225461041195" height="54.007225461041195" width="75.00928567424602"><g><svg xmlns="http://www.w3.org/2000/svg" xmlns:xlink="http://www.w3.org/1999/xlink" version="1.1" x="0" y="0" viewBox="0 15 99.9990005493164 72" enable-background="new 0 0 100 100" xml:space="preserve" height="54.007225461041195" width="75.00928567424602" class="icon-s-0" data-fill-palette-color="accent" id="s-0"><g fill="#c8c8c8" data-fill-palette-color="accent"><polygon fill="#ffffff" points="33,67.685 45,72.534 45,69.429 38.065,66.551 45,63.583 45,60.501 33,65.35  " data-fill-palette-color="accent"></polygon><polygon fill="#ffffff" points="45.892,73.713 48.452,74.55 55.455,56.988 52.895,56.104  " data-fill-palette-color="accent"></polygon><polygon fill="#ffffff" points="57,63.583 63.934,66.551 57,69.429 57,72.534 69,67.685 69,65.35 57,60.501  " data-fill-palette-color="accent"></polygon><path fill="#ffffff" d="M19.766 35h-2.493l-0.657 4h-1.768l0.656-4h-2.516l-0.657 4H10v2h2.038l-0.34 3H10v2h1.38l-0.656 4h2.493l0.657-4h1.79l-0.657 4H17.5l0.68-4H20v-2h-1.525l0.317-3H21v-2h-1.869L19.766 35zM15.981 44h-1.768l0.295-3h1.791L15.981 44z" data-fill-palette-color="accent"></path><path fill="#ffffff" d="M96.223 15H3.777C1.691 15 0 16.691 0 18.777v64.445C0 85.309 1.691 87 3.777 87h92.445c2.086 0 3.777-1.691 3.777-3.777V18.777C100 16.691 98.309 15 96.223 15zM23.048 19.544c1.368 0 2.479 1.11 2.479 2.479 0 1.369-1.111 2.479-2.479 2.479s-2.479-1.109-2.479-2.479C20.569 20.654 21.68 19.544 23.048 19.544zM15.494 19.544c1.369 0 2.479 1.11 2.479 2.479 0 1.369-1.11 2.479-2.479 2.479-1.368 0-2.479-1.109-2.479-2.479C13.015 20.654 14.126 19.544 15.494 19.544zM7.94 19.544c1.368 0 2.479 1.11 2.479 2.479 0 1.369-1.11 2.479-2.479 2.479s-2.479-1.109-2.479-2.479C5.461 20.654 6.572 19.544 7.94 19.544zM94 76.059C94 78.235 92.235 80 90.058 80H7.942C5.765 80 4 78.235 4 76.059V32.941C4 30.765 5.765 29 7.942 29h82.115C92.235 29 94 30.765 94 32.941V76.059z" data-fill-palette-color="accent"></path><path fill="#ffffff" d="M75.367 36.812C74.879 37.341 75 38.073 75 38.972v3.391c0 0.278-0.404 0.509-0.484 0.694-0.08 0.186-0.473 0.327-0.599 0.427-0.125 0.099-0.275 0.168-0.434 0.208C73.324 43.731 73 43.75 73 43.75v2.182c0 0 0.342 0.02 0.499 0.06 0.159 0.04 0.372 0.112 0.499 0.218 0.125 0.106 0.463 0.255 0.542 0.447C74.618 46.848 75 47.096 75 47.4v3.311c0 0.899-0.121 1.29 0.367 1.818C75.857 53.058 76.151 53 76.984 53H80v-2h-1.377c-0.383 0-0.487 0.156-0.599-0.094C77.911 50.654 78 50.664 78 50.375v-3.233c0-0.437-0.24-0.796-0.371-1.081s-0.35-0.512-0.541-0.685c-0.191-0.171-0.328-0.297-0.54-0.376C76.336 44.921 76 44.875 76 44.861v-0.039c0-0.014 0.256-0.066 0.465-0.159 0.214-0.093 0.414-0.225 0.605-0.397 0.192-0.171 0.501-0.393 0.632-0.665C77.834 43.331 78 43.004 78 42.621v-3.312c0-0.29-0.089-0.621 0.024-0.872C78.136 38.186 78.24 38 78.623 38H80v-2h-3.016C76.151 36 75.857 36.283 75.367 36.812z" data-fill-palette-color="accent"></path><path fill="#ffffff" d="M89.083 43.484c-0.126-0.1-0.519-0.241-0.599-0.427C88.404 42.872 88 42.641 88 42.363v-3.391c0-0.899 0.121-1.631-0.367-2.161C87.143 36.283 86.849 36 86.016 36H83v2h1.377c0.383 0 0.487 0.186 0.599 0.437C85.089 38.688 85 39.019 85 39.309v3.312c0 0.384 0.166 0.71 0.298 0.981 0.131 0.271 0.439 0.493 0.632 0.665 0.191 0.172 0.392 0.304 0.605 0.397C86.744 44.756 87 44.809 87 44.822v0.039c0 0.014-0.336 0.06-0.548 0.139-0.212 0.08-0.349 0.205-0.54 0.377s-0.41 0.4-0.541 0.685S85 46.705 85 47.143v3.232c0 0.289 0.089 0.279-0.024 0.531C84.864 51.156 84.76 51 84.377 51H83v2h3.016c0.833 0 1.127 0.058 1.617-0.471C88.121 52.001 88 51.61 88 50.711V47.4c0-0.305 0.382-0.553 0.46-0.744 0.079-0.191 0.417-0.34 0.542-0.446 0.127-0.106 0.34-0.179 0.499-0.218C89.658 45.952 90 45.932 90 45.932V43.75c0 0-0.324-0.019-0.483-0.059C89.358 43.652 89.208 43.583 89.083 43.484z" data-fill-palette-color="accent"></path></g></svg></g></svg></g></svg></g></svg></g></svg></g><defs></defs></svg><rect width="395.52" height="93.16526624383212" fill="none" stroke="none" visibility="hidden"></rect></g></svg></g></svg>