<svg xmlns="http://www.w3.org/2000/svg" version="1.1" viewBox="0.00 0.00 500.00 500.00">
<g stroke-width="2.00" fill="none" stroke-linecap="butt">
<path stroke="#051747" vector-effect="non-scaling-stroke" d="
  M 289.39 120.58
  L 291.53 122.60
  Q 291.92 122.96 292.44 122.86
  Q 293.68 122.61 294.35 123.79
  A 1.66 1.64 -7.0 0 0 295.37 124.58
  Q 296.58 124.90 296.51 126.14
  Q 296.48 126.70 296.95 127.01
  Q 297.46 127.35 297.38 127.93
  Q 297.30 128.47 297.68 128.87
  Q 298.62 129.84 298.94 131.15
  Q 298.96 131.24 299.02 131.30
  Q 299.21 131.47 299.31 131.23
  A 0.15 0.14 46.5 0 1 299.58 131.24
  Q 299.99 132.38 301.12 133.06
  Q 301.47 133.27 301.32 133.65
  Q 301.23 133.87 301.07 133.78
  Q 300.42 133.45 300.58 134.17
  Q 300.89 135.55 301.19 136.98
  Q 301.27 137.35 300.88 137.31
  Q 300.72 137.29 300.61 137.17
  Q 299.91 136.40 300.26 137.38
  Q 300.47 137.98 300.37 138.62
  A 1.30 1.27 32.9 0 0 300.59 139.58
  Q 301.76 141.27 302.56 143.19
  Q 302.86 143.90 303.59 144.02
  Q 304.29 144.14 304.12 144.76
  Q 304.06 144.96 304.29 144.87
  A 0.43 0.43 0.0 0 1 304.80 145.04
  Q 305.59 146.20 306.54 147.24
  Q 307.66 148.47 307.47 150.30"
/>
<path stroke="#273aa0" vector-effect="non-scaling-stroke" d="
  M 307.47 150.30
  L 300.13 142.51"
/>
<path stroke="#2443a4" vector-effect="non-scaling-stroke" d="
  M 300.13 142.51
  Q 292.58 134.96 282.73 130.31"
/>
<path stroke="#4340a6" vector-effect="non-scaling-stroke" d="
  M 282.73 130.31
  Q 270.41 123.75 256.41 122.71
  A 0.58 0.57 -8.9 0 0 255.83 123.50
  L 260.04 134.01
  A 2.51 2.50 -6.4 0 0 261.98 135.55
  Q 273.01 137.31 282.11 143.22"
/>
<path stroke="#2443a4" vector-effect="non-scaling-stroke" d="
  M 282.11 143.22
  L 291.52 150.24"
/>
<path stroke="#273aa0" vector-effect="non-scaling-stroke" d="
  M 291.52 150.24
  L 294.21 153.23"
/>
<path stroke="#051747" vector-effect="non-scaling-stroke" d="
  M 294.21 153.23
  L 293.22 153.41
  Q 292.65 153.51 292.97 153.99
  Q 293.10 154.17 293.08 154.39
  Q 293.03 154.98 292.44 155.06
  Q 291.72 155.16 291.31 155.78
  A 1.51 1.48 7.5 0 1 290.46 156.42
  Q 290.24 156.48 290.04 156.38
  Q 289.23 155.96 289.72 156.73
  Q 290.07 157.28 289.65 158.11"
/>
<path stroke="#2443a4" vector-effect="non-scaling-stroke" d="
  M 289.65 158.11
  Q 282.25 150.76 272.76 148.05"
/>
<path stroke="#4340a6" vector-effect="non-scaling-stroke" d="
  M 272.76 148.05
  Q 268.29 146.96 265.50 146.86
  Q 255.83 146.49 240.74 146.89
  Q 238.28 146.95 236.37 149.73"
/>
<path stroke="#41199a" vector-effect="non-scaling-stroke" d="
  M 236.37 149.73
  L 226.88 150.29"
/>
<path stroke="#611aa7" vector-effect="non-scaling-stroke" d="
  M 226.88 150.29
  Q 223.68 149.21 221.30 145.96
  Q 217.80 141.19 219.61 136.19
  Q 223.17 126.36 233.70 128.15
  C 236.02 128.54 236.70 132.49 238.41 134.06
  Q 241.48 136.89 245.53 134.54
  C 248.84 132.62 247.70 127.89 245.65 125.52
  Q 239.42 118.32 229.94 118.33
  Q 221.90 118.34 216.36 123.37
  C 206.77 132.08 206.95 146.22 216.19 155.07
  Q 222.64 161.25 232.91 160.13"
/>
<path stroke="#41199a" vector-effect="non-scaling-stroke" d="
  M 232.91 160.13
  Q 246.92 156.78 262.23 158.02"
/>
<path stroke="#4340a6" vector-effect="non-scaling-stroke" d="
  M 262.23 158.02
  Q 265.38 157.96 268.44 158.92"
/>
<path stroke="#051747" vector-effect="non-scaling-stroke" d="
  M 268.44 158.92
  L 262.86 159.51
  Q 262.34 159.56 261.87 159.78
  Q 261.00 160.18 260.04 160.20
  A 0.80 0.79 -74.1 0 0 259.39 160.57
  Q 258.92 161.31 259.68 161.47
  A 0.11 0.11 0.0 0 1 259.76 161.61
  Q 259.61 162.01 259.24 162.20
  A 0.26 0.26 0.0 0 0 259.16 162.60
  Q 260.01 163.64 260.26 165.06
  A 7.30 6.84 47.7 0 1 260.22 167.70
  Q 259.98 168.87 260.28 170.39"
/>
<path stroke="#7b8da8" vector-effect="non-scaling-stroke" d="
  M 260.28 170.39
  Q 254.06 167.58 248.25 167.56
  Q 221.53 167.49 194.41 167.49
  A 0.69 0.68 -90.0 0 0 193.73 168.18
  L 193.72 185.23
  A 0.29 0.29 0.0 0 0 194.22 185.44
  C 205.25 174.13 223.99 180.10 226.15 195.52
  C 227.07 202.07 224.35 209.39 218.80 213.25
  Q 210.59 218.96 200.97 215.41
  C 198.59 214.53 196.64 212.79 194.80 211.07
  Q 194.47 210.76 194.07 210.98
  L 193.71 211.18"
/>
<path stroke="#233d97" vector-effect="non-scaling-stroke" d="
  M 294.24 229.98
  Q 287.65 235.47 279.63 237.79
  Q 274.69 239.21 264.72 239.23
  Q 239.21 239.27 213.71 239.25"
/>
<path stroke="#40138e" vector-effect="non-scaling-stroke" d="
  M 213.71 239.25
  L 184.36 239.35
  A 0.56 0.55 86.5 0 1 183.81 238.86
  Q 182.86 230.14 175.50 224.43"
/>
<path stroke="#051747" vector-effect="non-scaling-stroke" d="
  M 175.50 224.43
  L 175.60 224.11
  Q 175.70 223.79 176.01 223.90
  Q 176.15 223.95 176.22 224.08
  Q 176.47 224.63 176.92 224.25
  Q 177.30 223.92 177.78 224.02
  Q 178.32 224.14 178.41 223.59
  Q 178.52 222.93 178.09 222.50
  A 1.01 0.97 23.0 0 1 177.81 221.84
  Q 177.80 220.53 178.40 219.41
  Q 178.71 218.83 178.08 218.63
  Q 177.76 218.52 177.44 218.60
  Q 176.84 218.75 177.38 218.44
  Q 177.68 218.26 177.76 217.90
  Q 177.80 217.74 177.65 217.67
  Q 177.52 217.61 177.39 217.64
  Q 176.56 217.83 177.11 217.17
  Q 177.83 216.30 177.68 215.23
  A 1.72 1.72 0.0 0 1 178.96 213.33
  Q 182.39 212.46 179.86 211.18"
/>
<path stroke="#7a879c" vector-effect="non-scaling-stroke" d="
  M 193.71 211.18
  L 193.78 229.45
  A 0.49 0.49 0.0 0 0 194.27 229.93
  Q 223.87 229.98 250.84 229.95
  Q 259.33 229.94 265.48 225.74
  C 278.48 216.88 282.63 200.79 276.31 186.42
  Q 271.65 175.84 260.28 170.39"
/>
<path stroke="#273aa0" vector-effect="non-scaling-stroke" d="
  M 302.95 237.24
  Q 296.53 243.88 287.64 246.91"
/>
<path stroke="#4560f1" vector-effect="non-scaling-stroke" d="
  M 287.64 246.91
  Q 290.34 244.81 293.30 243.16
  Q 294.02 242.76 293.21 242.87
  Q 293.06 242.89 292.94 242.80
  Q 292.53 242.50 292.85 242.11
  Q 294.19 240.43 293.38 238.14
  Q 293.24 237.74 293.52 237.43
  Q 294.62 236.20 296.48 235.72
  A 0.62 0.62 0.0 0 0 296.78 234.70
  Q 296.51 234.39 296.80 234.24
  Q 297.30 233.98 296.82 233.70
  Q 296.50 233.53 296.32 233.19
  Q 296.04 232.68 296.48 232.29
  Q 296.66 232.13 296.66 231.88
  Q 296.64 231.30 296.11 230.97
  Q 295.85 230.81 295.56 230.87
  Q 294.87 231.01 294.67 230.33
  Q 294.55 229.93 294.24 229.98"
/>
<path stroke="#263494" vector-effect="non-scaling-stroke" d="
  M 294.24 229.98
  Q 300.60 223.51 302.10 221.34
  Q 311.31 208.03 310.94 191.83
  Q 310.72 181.97 306.73 172.42
  Q 302.28 161.80 294.21 153.23"
/>
<path stroke="#6166f6" vector-effect="non-scaling-stroke" d="
  M 272.76 148.05
  Q 272.95 148.36 273.20 148.65
  Q 273.28 148.75 273.16 148.81
  Q 273.12 148.83 273.07 148.84
  Q 272.92 148.85 272.96 148.99
  Q 273.34 150.25 273.82 151.41
  Q 274.05 151.98 273.56 152.34
  Q 271.50 153.89 272.75 156.84
  Q 272.94 157.29 272.78 157.74
  Q 272.06 159.69 270.82 159.63"
/>
<path stroke="#423a99" vector-effect="non-scaling-stroke" d="
  M 270.82 159.63
  L 268.44 158.92"
/>
<path stroke="#7d3ced" vector-effect="non-scaling-stroke" d="
  M 262.23 158.02
  Q 253.13 157.62 244.07 157.81
  Q 241.30 157.87 239.74 156.72
  Q 236.45 154.30 236.37 149.73"
/>
<path stroke="#6166f6" vector-effect="non-scaling-stroke" d="
  M 282.73 130.31
  Q 282.32 132.22 282.80 134.04
  A 1.27 1.27 0.0 0 1 282.70 134.96
  Q 280.35 139.43 282.11 143.22"
/>
<path stroke="#233d97" vector-effect="non-scaling-stroke" d="
  M 289.65 158.11
  Q 292.16 160.37 293.58 162.43
  C 295.77 165.61 295.89 171.35 291.53 172.87
  Q 288.69 173.86 286.08 172.54
  C 284.64 171.81 283.97 170.30 283.19 168.98
  C 280.78 164.91 275.02 161.44 270.82 159.63"
/>
<path stroke="#9b16ee" vector-effect="non-scaling-stroke" d="
  M 226.88 150.29
  Q 229.80 151.13 229.56 152.75
  Q 229.35 154.15 230.15 155.21
  Q 231.32 156.78 232.80 158.07
  Q 233.80 158.94 232.91 160.13"
/>
<path stroke="#0e6a9b" vector-effect="non-scaling-stroke" d="
  M 338.12 265.26
  Q 327.32 270.98 319.10 280.11
  A 0.74 0.74 0.0 0 1 317.91 280.00
  L 312.46 271.06"
/>
<path stroke="#051747" vector-effect="non-scaling-stroke" d="
  M 312.46 271.06
  Q 312.72 270.21 312.61 269.37
  Q 312.58 270.25 313.79 269.35
  A 0.82 0.81 -14.7 0 0 314.10 268.83
  Q 314.77 264.75 313.53 260.70
  A 1.86 1.78 -76.7 0 0 313.10 259.97
  Q 312.58 259.43 312.56 258.54
  Q 312.51 255.49 312.22 252.67
  Q 311.92 249.76 309.12 247.71
  Q 307.20 246.30 305.44 244.84
  Q 305.10 244.56 305.03 244.13
  Q 304.99 243.85 304.72 243.79
  Q 304.22 243.68 303.89 243.28
  Q 303.47 242.76 303.18 242.18
  Q 303.04 241.88 302.73 241.77
  Q 301.81 241.44 301.72 240.49
  Q 301.68 240.01 301.97 239.62
  Q 302.82 238.51 302.95 237.24"
/>
<path stroke="#263494" vector-effect="non-scaling-stroke" d="
  M 302.95 237.24
  C 305.40 234.98 307.57 233.00 309.40 230.05
  Q 311.60 226.50 314.02 223.10
  Q 315.34 221.24 317.34 216.46
  Q 318.67 213.26 319.61 209.41
  C 320.54 205.57 321.58 201.61 321.86 197.79
  Q 323.85 171.16 307.47 150.30"
/>
<path stroke="#4560f1" vector-effect="non-scaling-stroke" d="
  M 300.13 142.51
  L 302.91 146.95
  Q 303.07 147.21 303.33 147.38
  Q 303.88 147.73 303.47 148.29
  Q 303.08 148.82 303.71 148.97
  Q 303.80 149.00 303.85 149.07
  Q 304.15 149.46 304.05 149.99
  Q 303.83 151.20 303.45 152.37
  Q 303.25 153.00 302.79 153.35
  Q 301.99 153.98 301.10 153.49
  Q 300.80 153.33 300.79 153.67
  Q 300.78 154.14 300.37 154.39
  Q 298.83 155.36 299.43 157.00
  A 0.47 0.47 0.0 0 1 298.92 157.63
  Q 298.13 157.51 298.14 156.71
  Q 298.15 156.26 297.70 156.31
  Q 297.49 156.33 297.41 156.14
  Q 296.96 154.99 295.80 154.40
  Q 295.69 154.34 295.59 154.26
  Q 295.34 154.09 295.37 153.86
  Q 295.41 153.56 295.24 153.31
  Q 293.56 150.88 291.52 150.24"
/>
<path stroke="#5f3feb" vector-effect="non-scaling-stroke" d="
  M 213.71 239.25
  Q 213.43 239.83 213.98 240.13
  Q 214.35 240.33 214.39 240.51
  Q 214.46 240.79 214.21 241.14"
/>
<path stroke="#40138e" vector-effect="non-scaling-stroke" d="
  M 214.21 241.14
  Q 206.48 241.51 206.76 249.43
  A 0.75 0.75 0.0 0 1 206.01 250.21
  L 182.32 250.30
  A 1.71 1.69 -72.3 0 0 180.93 251.03
  Q 172.96 262.72 158.46 259.76"
/>
<path stroke="#2443a4" vector-effect="non-scaling-stroke" d="
  M 287.64 246.91
  Q 283.09 249.35 277.50 249.85
  Q 268.40 250.65 260.05 250.28"
/>
<path stroke="#233d97" vector-effect="non-scaling-stroke" d="
  M 260.05 250.28
  L 220.99 250.29
  Q 220.49 250.29 220.49 249.79
  C 220.44 245.22 219.31 241.45 214.21 241.14"
/>
<path stroke="#41199a" vector-effect="non-scaling-stroke" d="
  M 175.50 224.43
  Q 163.57 216.68 152.86 223.89
  C 147.15 227.74 143.84 233.64 144.06 240.49
  Q 144.54 255.10 158.46 259.76"
/>
<path stroke="#051747" vector-effect="non-scaling-stroke" d="
  M 158.46 259.76
  Q 157.41 260.47 156.35 259.53
  A 0.59 0.59 0.0 0 0 155.43 259.71
  Q 155.14 260.28 155.58 260.70
  Q 155.84 260.94 155.50 261.06
  L 154.22 261.50
  Q 153.65 261.70 153.44 261.14
  Q 152.71 259.19 150.92 258.84
  Q 150.76 258.81 150.69 258.67
  Q 150.61 258.53 150.64 258.39
  Q 150.82 257.53 150.06 257.97
  Q 149.03 258.56 147.91 258.38
  Q 147.04 258.25 146.95 259.12
  Q 146.88 259.87 146.16 260.10
  Q 145.77 260.22 145.54 260.56
  Q 144.78 261.67 142.77 261.03"
/>
<path stroke="#0f70a7" vector-effect="non-scaling-stroke" d="
  M 312.46 271.06
  Q 307.50 264.66 301.72 259.09
  Q 300.89 258.29 299.32 257.49
  Q 298.06 256.85 296.86 255.92"
/>
<path stroke="#7b8da8" vector-effect="non-scaling-stroke" d="
  M 296.86 255.92
  C 291.49 250.20 282.09 253.24 283.43 261.85"
/>
<path stroke="#051747" vector-effect="non-scaling-stroke" d="
  M 283.43 261.85
  Q 282.53 260.42 282.63 258.62
  Q 282.65 258.32 282.36 258.41
  L 282.00 258.52
  Q 281.80 258.58 281.84 258.79
  Q 282.21 260.71 280.31 261.18
  Q 277.54 261.87 274.35 260.44
  Q 271.85 259.31 269.40 258.64
  C 265.86 257.66 262.23 258.39 258.61 258.23
  A 1.24 1.24 0.0 0 1 257.61 256.35
  Q 259.34 253.52 260.05 250.28"
/>
<path stroke="#7a879c" vector-effect="non-scaling-stroke" d="
  M 283.43 261.85
  Q 285.87 269.06 293.66 267.41"
/>
<path stroke="#0e6a9b" vector-effect="non-scaling-stroke" d="
  M 293.66 267.41
  Q 304.14 276.15 309.68 288.75
  Q 310.71 291.10 310.58 293.76
  Q 310.31 299.41 315.90 299.34
  Q 318.79 299.31 320.10 297.36
  Q 329.61 283.28 343.63 275.27"
/>
<path stroke="#0e6a9b" vector-effect="non-scaling-stroke" d="
  M 349.70 305.03
  L 330.04 304.90"
/>
<path stroke="#57809b" vector-effect="non-scaling-stroke" d="
  M 330.04 304.90
  L 294.07 304.85"
/>
<path stroke="#7a879c" vector-effect="non-scaling-stroke" d="
  M 294.07 304.85
  L 288.14 304.97
  Q 287.35 304.99 287.29 304.20
  Q 286.02 286.20 272.81 275.68
  C 266.07 270.30 257.15 268.07 248.09 268.10
  Q 221.53 268.20 194.29 268.05
  Q 193.65 268.04 193.65 268.68
  L 193.71 284.50
  A 1.08 1.07 -89.7 0 1 192.63 285.58
  L 184.99 285.48"
/>
<path stroke="#263494" vector-effect="non-scaling-stroke" d="
  M 184.99 285.48
  Q 185.01 277.54 184.69 273.50
  C 184.20 267.17 175.53 266.38 174.98 273.00
  Q 174.57 278.00 175.31 285.49"
/>
<path stroke="#7a879c" vector-effect="non-scaling-stroke" d="
  M 175.31 285.49
  L 150.76 285.52"
/>
<path stroke="#83e0fc" vector-effect="non-scaling-stroke" d="
  M 296.86 255.92
  C 298.29 260.31 298.00 265.05 293.66 267.41"
/>
<path stroke="#61d9fc" vector-effect="non-scaling-stroke" d="
  M 330.04 304.90
  Q 331.06 305.04 331.32 305.92
  Q 331.48 306.45 331.01 306.74
  Q 330.67 306.96 330.53 307.32
  Q 330.36 307.74 330.47 308.18
  C 330.92 309.85 330.29 311.22 330.54 312.87
  Q 330.79 314.52 331.21 315.82
  Q 331.40 316.39 330.79 316.35
  Q 329.38 316.26 328.19 316.61"
/>
<path stroke="#57809b" vector-effect="non-scaling-stroke" d="
  M 328.19 316.61
  L 294.77 316.71"
/>
<path stroke="#cdf6fd" vector-effect="non-scaling-stroke" d="
  M 294.07 304.85
  Q 294.84 306.07 295.13 307.79
  Q 295.33 308.97 295.72 310.04
  Q 296.19 311.33 295.62 312.57
  Q 295.45 312.95 295.61 313.34
  Q 295.78 313.77 295.52 314.16
  Q 295.25 314.57 295.68 314.80
  Q 296.34 315.17 296.82 315.75
  Q 297.25 316.28 296.58 316.39
  L 294.77 316.71"
/>
<path stroke="#7a879c" vector-effect="non-scaling-stroke" d="
  M 294.77 316.71
  L 286.66 316.69
  A 0.76 0.75 9.0 0 0 285.94 317.21
  Q 284.03 322.94 280.09 327.68
  Q 267.17 343.22 246.76 343.18
  Q 229.52 343.14 210.06 343.19
  A 0.49 0.48 -4.9 0 1 209.58 342.79
  C 205.86 322.64 185.08 313.14 168.07 325.45
  A 1.62 1.57 -62.4 0 1 167.19 325.74
  L 150.78 325.97"
/>
<path stroke="#7a879c" vector-effect="non-scaling-stroke" d="
  M 150.97 311.78
  Q 168.27 311.75 185.16 311.73
  Q 187.59 311.73 189.85 311.43
  C 192.05 311.13 195.39 310.47 197.32 311.79
  C 204.68 316.83 214.66 316.19 220.87 310.23
  C 230.90 300.60 226.45 282.35 212.91 278.87
  Q 206.31 277.17 199.32 280.68
  C 194.24 283.23 191.06 289.61 190.35 294.91
  Q 190.27 295.49 189.69 295.49
  L 150.33 295.56"
/>
<path stroke="#9baaf5" vector-effect="non-scaling-stroke" d="
  M 175.31 285.49
  L 184.99 285.48"
/>
<path stroke="#0e6a9b" vector-effect="non-scaling-stroke" d="
  M 349.21 316.37
  L 328.19 316.61"
/>
<path stroke="#41199a" vector-effect="non-scaling-stroke" d="
  M 215.84 198.03
  A 7.96 7.96 0.0 0 0 207.88 190.07
  A 7.96 7.96 0.0 0 0 199.92 198.03
  A 7.96 7.96 0.0 0 0 207.88 205.99
  A 7.96 7.96 0.0 0 0 215.84 198.03"
/>
<path stroke="#7a879c" vector-effect="non-scaling-stroke" d="
  M 301.50 186.28
  A 7.60 7.60 0.0 0 0 293.90 178.68
  A 7.60 7.60 0.0 0 0 286.30 186.28
  A 7.60 7.60 0.0 0 0 293.90 193.88
  A 7.60 7.60 0.0 0 0 301.50 186.28"
/>
<path stroke="#7b8da8" vector-effect="non-scaling-stroke" d="
  M 251.60 200.70
  A 7.08 7.08 0.0 0 0 244.52 193.62
  A 7.08 7.08 0.0 0 0 237.44 200.70
  A 7.08 7.08 0.0 0 0 244.52 207.78
  A 7.08 7.08 0.0 0 0 251.60 200.70"
/>
<path stroke="#41199a" vector-effect="non-scaling-stroke" d="
  M 166.3893 251.1632
  A 10.82 10.66 76.1 0 0 174.1378 238.0992
  A 10.82 10.66 76.1 0 0 161.1907 230.1568
  A 10.82 10.66 76.1 0 0 153.4422 243.2208
  A 10.82 10.66 76.1 0 0 166.3893 251.1632"
/>
<path stroke="#7a879c" vector-effect="non-scaling-stroke" d="
  M 251.1398 304.2274
  A 7.14 6.99 -25.4 0 0 241.6917 300.9757
  A 7.14 6.99 -25.4 0 0 238.2402 310.3526
  A 7.14 6.99 -25.4 0 0 247.6883 313.6043
  A 7.14 6.99 -25.4 0 0 251.1398 304.2274"
/>
<path stroke="#40138e" vector-effect="non-scaling-stroke" d="
  M 216.04 296.64
  A 7.98 7.98 0.0 0 0 208.06 288.66
  A 7.98 7.98 0.0 0 0 200.08 296.64
  A 7.98 7.98 0.0 0 0 208.06 304.62
  A 7.98 7.98 0.0 0 0 216.04 296.64"
/>
<path stroke="#0e6a9b" vector-effect="non-scaling-stroke" d="
  M 279.04 376.35
  C 299.01 370.87 313.66 359.32 324.95 342.40
  Q 326.02 340.80 327.51 339.23
  C 332.43 334.05 327.57 325.84 320.71 329.44
  C 319.42 330.11 318.76 330.89 317.14 330.86
  Q 310.11 330.75 303.89 331.03
  C 297.24 331.33 293.24 335.76 288.89 340.16
  Q 280.61 348.55 269.27 351.59
  Q 262.93 353.29 250.89 353.07
  Q 229.99 352.69 209.36 353.04
  A 1.49 1.49 0.0 0 0 207.98 354.00
  Q 206.07 358.99 201.96 363.25
  A 0.50 0.50 0.0 0 0 202.32 364.10
  Q 230.96 364.12 261.87 364.02
  Q 272.04 363.99 282.10 359.28
  C 290.91 355.16 297.10 350.01 303.44 343.24
  Q 304.76 341.83 306.68 341.80
  L 308.73 341.77
  Q 311.11 341.74 309.66 343.63
  Q 308.17 345.59 306.37 347.41
  Q 295.85 358.09 282.00 363.61
  C 278.20 365.12 272.79 363.72 271.68 369.32
  Q 271.16 371.94 272.45 373.81
  Q 274.95 377.48 279.04 376.35"
/>
<path stroke="#7a879c" vector-effect="non-scaling-stroke" d="
  M 185.1005 361.0215
  A 15.38 15.15 85.0 0 0 198.8523 344.3796
  A 15.38 15.15 85.0 0 0 182.4195 330.3785
  A 15.38 15.15 85.0 0 0 168.6677 347.0204
  A 15.38 15.15 85.0 0 0 185.1005 361.0215"
/>
<path stroke="#7a879c" vector-effect="non-scaling-stroke" d="
  M 190.23 345.74
  A 6.45 6.45 0.0 0 0 183.78 339.29
  A 6.45 6.45 0.0 0 0 177.33 345.74
  A 6.45 6.45 0.0 0 0 183.78 352.19
  A 6.45 6.45 0.0 0 0 190.23 345.74"
/>
</g>
<path fill="#061d53" d="
  M 289.39 120.58
  L 291.53 122.60
  Q 291.92 122.96 292.44 122.86
  Q 293.68 122.61 294.35 123.79
  A 1.66 1.64 -7.0 0 0 295.37 124.58
  Q 296.58 124.90 296.51 126.14
  Q 296.48 126.70 296.95 127.01
  Q 297.46 127.35 297.38 127.93
  Q 297.30 128.47 297.68 128.87
  Q 298.62 129.84 298.94 131.15
  Q 298.96 131.24 299.02 131.30
  Q 299.21 131.47 299.31 131.23
  A 0.15 0.14 46.5 0 1 299.58 131.24
  Q 299.99 132.38 301.12 133.06
  Q 301.47 133.27 301.32 133.65
  Q 301.23 133.87 301.07 133.78
  Q 300.42 133.45 300.58 134.17
  Q 300.89 135.55 301.19 136.98
  Q 301.27 137.35 300.88 137.31
  Q 300.72 137.29 300.61 137.17
  Q 299.91 136.40 300.26 137.38
  Q 300.47 137.98 300.37 138.62
  A 1.30 1.27 32.9 0 0 300.59 139.58
  Q 301.76 141.27 302.56 143.19
  Q 302.86 143.90 303.59 144.02
  Q 304.29 144.14 304.12 144.76
  Q 304.06 144.96 304.29 144.87
  A 0.43 0.43 0.0 0 1 304.80 145.04
  Q 305.59 146.20 306.54 147.24
  Q 307.66 148.47 307.47 150.30
  L 300.13 142.51
  Q 292.58 134.96 282.73 130.31
  Q 270.41 123.75 256.41 122.71
  A 0.58 0.57 -8.9 0 0 255.83 123.50
  L 260.04 134.01
  A 2.51 2.50 -6.4 0 0 261.98 135.55
  Q 273.01 137.31 282.11 143.22
  L 291.52 150.24
  L 294.21 153.23
  L 293.22 153.41
  Q 292.65 153.51 292.97 153.99
  Q 293.10 154.17 293.08 154.39
  Q 293.03 154.98 292.44 155.06
  Q 291.72 155.16 291.31 155.78
  A 1.51 1.48 7.5 0 1 290.46 156.42
  Q 290.24 156.48 290.04 156.38
  Q 289.23 155.96 289.72 156.73
  Q 290.07 157.28 289.65 158.11
  Q 282.25 150.76 272.76 148.05
  Q 268.29 146.96 265.50 146.86
  Q 255.83 146.49 240.74 146.89
  Q 238.28 146.95 236.37 149.73
  L 226.88 150.29
  Q 223.68 149.21 221.30 145.96
  Q 217.80 141.19 219.61 136.19
  Q 223.17 126.36 233.70 128.15
  C 236.02 128.54 236.70 132.49 238.41 134.06
  Q 241.48 136.89 245.53 134.54
  C 248.84 132.62 247.70 127.89 245.65 125.52
  Q 239.42 118.32 229.94 118.33
  Q 221.90 118.34 216.36 123.37
  C 206.77 132.08 206.95 146.22 216.19 155.07
  Q 222.64 161.25 232.91 160.13
  Q 246.92 156.78 262.23 158.02
  Q 265.38 157.96 268.44 158.92
  L 262.86 159.51
  Q 262.34 159.56 261.87 159.78
  Q 261.00 160.18 260.04 160.20
  A 0.80 0.79 -74.1 0 0 259.39 160.57
  Q 258.92 161.31 259.68 161.47
  A 0.11 0.11 0.0 0 1 259.76 161.61
  Q 259.61 162.01 259.24 162.20
  A 0.26 0.26 0.0 0 0 259.16 162.60
  Q 260.01 163.64 260.26 165.06
  A 7.30 6.84 47.7 0 1 260.22 167.70
  Q 259.98 168.87 260.28 170.39
  Q 254.06 167.58 248.25 167.56
  Q 221.53 167.49 194.41 167.49
  A 0.69 0.68 -90.0 0 0 193.73 168.18
  L 193.72 185.23
  A 0.29 0.29 0.0 0 0 194.22 185.44
  C 205.25 174.13 223.99 180.10 226.15 195.52
  C 227.07 202.07 224.35 209.39 218.80 213.25
  Q 210.59 218.96 200.97 215.41
  C 198.59 214.53 196.64 212.79 194.80 211.07
  Q 194.47 210.76 194.07 210.98
  L 193.71 211.18
  L 193.92 210.74
  A 0.81 0.80 -51.6 0 0 193.83 209.92
  Q 190.98 206.13 189.95 201.93
  A 0.95 0.93 82.9 0 0 189.04 201.21
  L 151.54 201.14
  A 0.84 0.84 0.0 0 1 150.70 200.30
  Q 150.55 161.37 150.76 128.05
  C 150.80 121.84 150.75 119.29 158.13 120.31
  Q 162.00 120.85 165.85 120.47
  Q 170.37 120.03 173.18 120.03
  Q 184.92 120.00 197.00 120.03
  Q 197.90 120.03 200.02 120.38
  C 203.76 121.01 206.48 119.86 209.01 117.38
  Q 219.15 107.45 233.62 109.07
  Q 238.13 109.57 243.78 111.24
  Q 245.83 111.85 247.67 112.13
  C 249.51 112.42 251.35 112.92 253.21 112.87
  C 257.30 112.76 261.76 112.67 265.68 113.73
  C 267.41 114.19 269.26 114.13 271.08 114.60
  Q 280.49 117.07 289.39 120.58
  Z
  M 185.04 165.78
  C 189.82 162.85 193.00 161.20 193.12 154.72
  C 193.34 142.16 176.69 137.29 170.30 148.19
  C 166.85 154.08 169.23 161.00 174.57 164.80
  A 1.19 1.17 -72.5 0 1 175.06 165.76
  Q 174.97 176.20 175.07 185.67
  Q 175.12 190.18 179.79 190.87
  Q 179.92 190.89 180.06 190.86
  Q 184.70 189.89 184.73 185.55
  Q 184.78 175.91 184.56 166.66
  Q 184.55 166.08 185.04 165.78
  Z
  M 215.84 198.03
  A 7.96 7.96 0.0 0 0 207.88 190.07
  A 7.96 7.96 0.0 0 0 199.92 198.03
  A 7.96 7.96 0.0 0 0 207.88 205.99
  A 7.96 7.96 0.0 0 0 215.84 198.03
  Z"
/>
<path fill="#bb17fa" d="
  M 226.88 150.29
  Q 229.80 151.13 229.56 152.75
  Q 229.35 154.15 230.15 155.21
  Q 231.32 156.78 232.80 158.07
  Q 233.80 158.94 232.91 160.13
  Q 222.64 161.25 216.19 155.07
  C 206.95 146.22 206.77 132.08 216.36 123.37
  Q 221.90 118.34 229.94 118.33
  Q 239.42 118.32 245.65 125.52
  C 247.70 127.89 248.84 132.62 245.53 134.54
  Q 241.48 136.89 238.41 134.06
  C 236.70 132.49 236.02 128.54 233.70 128.15
  Q 223.17 126.36 219.61 136.19
  Q 217.80 141.19 221.30 145.96
  Q 223.68 149.21 226.88 150.29
  Z"
/>
<path fill="#04113a" d="
  M 289.39 120.58
  Q 317.10 131.97 331.67 156.32
  Q 343.87 176.69 342.08 201.01
  C 340.92 216.87 334.06 233.71 322.51 244.40
  A 0.92 0.92 0.0 0 0 322.51 245.74
  Q 332.22 254.63 338.12 265.26
  Q 327.32 270.98 319.10 280.11
  A 0.74 0.74 0.0 0 1 317.91 280.00
  L 312.46 271.06
  Q 312.72 270.21 312.61 269.37
  Q 312.58 270.25 313.79 269.35
  A 0.82 0.81 -14.7 0 0 314.10 268.83
  Q 314.77 264.75 313.53 260.70
  A 1.86 1.78 -76.7 0 0 313.10 259.97
  Q 312.58 259.43 312.56 258.54
  Q 312.51 255.49 312.22 252.67
  Q 311.92 249.76 309.12 247.71
  Q 307.20 246.30 305.44 244.84
  Q 305.10 244.56 305.03 244.13
  Q 304.99 243.85 304.72 243.79
  Q 304.22 243.68 303.89 243.28
  Q 303.47 242.76 303.18 242.18
  Q 303.04 241.88 302.73 241.77
  Q 301.81 241.44 301.72 240.49
  Q 301.68 240.01 301.97 239.62
  Q 302.82 238.51 302.95 237.24
  C 305.40 234.98 307.57 233.00 309.40 230.05
  Q 311.60 226.50 314.02 223.10
  Q 315.34 221.24 317.34 216.46
  Q 318.67 213.26 319.61 209.41
  C 320.54 205.57 321.58 201.61 321.86 197.79
  Q 323.85 171.16 307.47 150.30
  Q 307.66 148.47 306.54 147.24
  Q 305.59 146.20 304.80 145.04
  A 0.43 0.43 0.0 0 0 304.29 144.87
  Q 304.06 144.96 304.12 144.76
  Q 304.29 144.14 303.59 144.02
  Q 302.86 143.90 302.56 143.19
  Q 301.76 141.27 300.59 139.58
  A 1.30 1.27 32.9 0 1 300.37 138.62
  Q 300.47 137.98 300.26 137.38
  Q 299.91 136.40 300.61 137.17
  Q 300.72 137.29 300.88 137.31
  Q 301.27 137.35 301.19 136.98
  Q 300.89 135.55 300.58 134.17
  Q 300.42 133.45 301.07 133.78
  Q 301.23 133.87 301.32 133.65
  Q 301.47 133.27 301.12 133.06
  Q 299.99 132.38 299.58 131.24
  A 0.15 0.14 46.5 0 0 299.31 131.23
  Q 299.21 131.47 299.02 131.30
  Q 298.96 131.24 298.94 131.15
  Q 298.62 129.84 297.68 128.87
  Q 297.30 128.47 297.38 127.93
  Q 297.46 127.35 296.95 127.01
  Q 296.48 126.70 296.51 126.14
  Q 296.58 124.90 295.37 124.58
  A 1.66 1.64 -7.0 0 1 294.35 123.79
  Q 293.68 122.61 292.44 122.86
  Q 291.92 122.96 291.53 122.60
  L 289.39 120.58
  Z"
/>
<path fill="#7f63f8" d="
  M 282.73 130.31
  Q 282.32 132.22 282.80 134.04
  A 1.27 1.27 0.0 0 1 282.70 134.96
  Q 280.35 139.43 282.11 143.22
  Q 273.01 137.31 261.98 135.55
  A 2.51 2.50 -6.4 0 1 260.04 134.01
  L 255.83 123.50
  A 0.58 0.57 -8.9 0 1 256.41 122.71
  Q 270.41 123.75 282.73 130.31
  Z"
/>
<path fill="#4268f4" d="
  M 282.73 130.31
  Q 292.58 134.96 300.13 142.51
  L 302.91 146.95
  Q 303.07 147.21 303.33 147.38
  Q 303.88 147.73 303.47 148.29
  Q 303.08 148.82 303.71 148.97
  Q 303.80 149.00 303.85 149.07
  Q 304.15 149.46 304.05 149.99
  Q 303.83 151.20 303.45 152.37
  Q 303.25 153.00 302.79 153.35
  Q 301.99 153.98 301.10 153.49
  Q 300.80 153.33 300.79 153.67
  Q 300.78 154.14 300.37 154.39
  Q 298.83 155.36 299.43 157.00
  A 0.47 0.47 0.0 0 1 298.92 157.63
  Q 298.13 157.51 298.14 156.71
  Q 298.15 156.26 297.70 156.31
  Q 297.49 156.33 297.41 156.14
  Q 296.96 154.99 295.80 154.40
  Q 295.69 154.34 295.59 154.26
  Q 295.34 154.09 295.37 153.86
  Q 295.41 153.56 295.24 153.31
  Q 293.56 150.88 291.52 150.24
  L 282.11 143.22
  Q 280.35 139.43 282.70 134.96
  A 1.27 1.27 0.0 0 0 282.80 134.04
  Q 282.32 132.22 282.73 130.31
  Z"
/>
<path fill="#4757ed" d="
  M 300.13 142.51
  L 307.47 150.30
  Q 323.85 171.16 321.86 197.79
  C 321.58 201.61 320.54 205.57 319.61 209.41
  Q 318.67 213.26 317.34 216.46
  Q 315.34 221.24 314.02 223.10
  Q 311.60 226.50 309.40 230.05
  C 307.57 233.00 305.40 234.98 302.95 237.24
  Q 296.53 243.88 287.64 246.91
  Q 290.34 244.81 293.30 243.16
  Q 294.02 242.76 293.21 242.87
  Q 293.06 242.89 292.94 242.80
  Q 292.53 242.50 292.85 242.11
  Q 294.19 240.43 293.38 238.14
  Q 293.24 237.74 293.52 237.43
  Q 294.62 236.20 296.48 235.72
  A 0.62 0.62 0.0 0 0 296.78 234.70
  Q 296.51 234.39 296.80 234.24
  Q 297.30 233.98 296.82 233.70
  Q 296.50 233.53 296.32 233.19
  Q 296.04 232.68 296.48 232.29
  Q 296.66 232.13 296.66 231.88
  Q 296.64 231.30 296.11 230.97
  Q 295.85 230.81 295.56 230.87
  Q 294.87 231.01 294.67 230.33
  Q 294.55 229.93 294.24 229.98
  Q 300.60 223.51 302.10 221.34
  Q 311.31 208.03 310.94 191.83
  Q 310.72 181.97 306.73 172.42
  Q 302.28 161.80 294.21 153.23
  L 291.52 150.24
  Q 293.56 150.88 295.24 153.31
  Q 295.41 153.56 295.37 153.86
  Q 295.34 154.09 295.59 154.26
  Q 295.69 154.34 295.80 154.40
  Q 296.96 154.99 297.41 156.14
  Q 297.49 156.33 297.70 156.31
  Q 298.15 156.26 298.14 156.71
  Q 298.13 157.51 298.92 157.63
  A 0.47 0.47 0.0 0 0 299.43 157.00
  Q 298.83 155.36 300.37 154.39
  Q 300.78 154.14 300.79 153.67
  Q 300.80 153.33 301.10 153.49
  Q 301.99 153.98 302.79 153.35
  Q 303.25 153.00 303.45 152.37
  Q 303.83 151.20 304.05 149.99
  Q 304.15 149.46 303.85 149.07
  Q 303.80 149.00 303.71 148.97
  Q 303.08 148.82 303.47 148.29
  Q 303.88 147.73 303.33 147.38
  Q 303.07 147.21 302.91 146.95
  L 300.13 142.51
  Z"
/>
<path fill="#7f63f8" d="
  M 272.76 148.05
  Q 272.95 148.36 273.20 148.65
  Q 273.28 148.75 273.16 148.81
  Q 273.12 148.83 273.07 148.84
  Q 272.92 148.85 272.96 148.99
  Q 273.34 150.25 273.82 151.41
  Q 274.05 151.98 273.56 152.34
  Q 271.50 153.89 272.75 156.84
  Q 272.94 157.29 272.78 157.74
  Q 272.06 159.69 270.82 159.63
  L 268.44 158.92
  Q 265.38 157.96 262.23 158.02
  Q 253.13 157.62 244.07 157.81
  Q 241.30 157.87 239.74 156.72
  Q 236.45 154.30 236.37 149.73
  Q 238.28 146.95 240.74 146.89
  Q 255.83 146.49 265.50 146.86
  Q 268.29 146.96 272.76 148.05
  Z"
/>
<path fill="#4268f4" d="
  M 272.76 148.05
  Q 282.25 150.76 289.65 158.11
  Q 292.16 160.37 293.58 162.43
  C 295.77 165.61 295.89 171.35 291.53 172.87
  Q 288.69 173.86 286.08 172.54
  C 284.64 171.81 283.97 170.30 283.19 168.98
  C 280.78 164.91 275.02 161.44 270.82 159.63
  Q 272.06 159.69 272.78 157.74
  Q 272.94 157.29 272.75 156.84
  Q 271.50 153.89 273.56 152.34
  Q 274.05 151.98 273.82 151.41
  Q 273.34 150.25 272.96 148.99
  Q 272.92 148.85 273.07 148.84
  Q 273.12 148.83 273.16 148.81
  Q 273.28 148.75 273.20 148.65
  Q 272.95 148.36 272.76 148.05
  Z"
/>
<path fill="#7b15e1" d="
  M 236.37 149.73
  Q 236.45 154.30 239.74 156.72
  Q 241.30 157.87 244.07 157.81
  Q 253.13 157.62 262.23 158.02
  Q 246.92 156.78 232.91 160.13
  Q 233.80 158.94 232.80 158.07
  Q 231.32 156.78 230.15 155.21
  Q 229.35 154.15 229.56 152.75
  Q 229.80 151.13 226.88 150.29
  L 236.37 149.73
  Z"
/>
<path fill="#04113a" d="
  M 294.21 153.23
  Q 302.28 161.80 306.73 172.42
  Q 310.72 181.97 310.94 191.83
  Q 311.31 208.03 302.10 221.34
  Q 300.60 223.51 294.24 229.98
  Q 287.65 235.47 279.63 237.79
  Q 274.69 239.21 264.72 239.23
  Q 239.21 239.27 213.71 239.25
  L 184.36 239.35
  A 0.56 0.55 86.5 0 1 183.81 238.86
  Q 182.86 230.14 175.50 224.43
  L 175.60 224.11
  Q 175.70 223.79 176.01 223.90
  Q 176.15 223.95 176.22 224.08
  Q 176.47 224.63 176.92 224.25
  Q 177.30 223.92 177.78 224.02
  Q 178.32 224.14 178.41 223.59
  Q 178.52 222.93 178.09 222.50
  A 1.01 0.97 23.0 0 1 177.81 221.84
  Q 177.80 220.53 178.40 219.41
  Q 178.71 218.83 178.08 218.63
  Q 177.76 218.52 177.44 218.60
  Q 176.84 218.75 177.38 218.44
  Q 177.68 218.26 177.76 217.90
  Q 177.80 217.74 177.65 217.67
  Q 177.52 217.61 177.39 217.64
  Q 176.56 217.83 177.11 217.17
  Q 177.83 216.30 177.68 215.23
  A 1.72 1.72 0.0 0 1 178.96 213.33
  Q 182.39 212.46 179.86 211.18
  L 193.71 211.18
  L 193.78 229.45
  A 0.49 0.49 0.0 0 0 194.27 229.93
  Q 223.87 229.98 250.84 229.95
  Q 259.33 229.94 265.48 225.74
  C 278.48 216.88 282.63 200.79 276.31 186.42
  Q 271.65 175.84 260.28 170.39
  Q 259.98 168.87 260.22 167.70
  A 7.30 6.84 47.7 0 0 260.26 165.06
  Q 260.01 163.64 259.16 162.60
  A 0.26 0.26 0.0 0 1 259.24 162.20
  Q 259.61 162.01 259.76 161.61
  A 0.11 0.11 0.0 0 0 259.68 161.47
  Q 258.92 161.31 259.39 160.57
  A 0.80 0.79 -74.1 0 1 260.04 160.20
  Q 261.00 160.18 261.87 159.78
  Q 262.34 159.56 262.86 159.51
  L 268.44 158.92
  L 270.82 159.63
  C 275.02 161.44 280.78 164.91 283.19 168.98
  C 283.97 170.30 284.64 171.81 286.08 172.54
  Q 288.69 173.86 291.53 172.87
  C 295.89 171.35 295.77 165.61 293.58 162.43
  Q 292.16 160.37 289.65 158.11
  Q 290.07 157.28 289.72 156.73
  Q 289.23 155.96 290.04 156.38
  Q 290.24 156.48 290.46 156.42
  A 1.51 1.48 7.5 0 0 291.31 155.78
  Q 291.72 155.16 292.44 155.06
  Q 293.03 154.98 293.08 154.39
  Q 293.10 154.17 292.97 153.99
  Q 292.65 153.51 293.22 153.41
  L 294.21 153.23
  Z
  M 301.50 186.28
  A 7.60 7.60 0.0 0 0 293.90 178.68
  A 7.60 7.60 0.0 0 0 286.30 186.28
  A 7.60 7.60 0.0 0 0 293.90 193.88
  A 7.60 7.60 0.0 0 0 301.50 186.28
  Z"
/>
<path fill="#effcfd" d="
  M 260.28 170.39
  Q 271.65 175.84 276.31 186.42
  C 282.63 200.79 278.48 216.88 265.48 225.74
  Q 259.33 229.94 250.84 229.95
  Q 223.87 229.98 194.27 229.93
  A 0.49 0.49 0.0 0 1 193.78 229.45
  L 193.71 211.18
  L 194.07 210.98
  Q 194.47 210.76 194.80 211.07
  C 196.64 212.79 198.59 214.53 200.97 215.41
  Q 210.59 218.96 218.80 213.25
  C 224.35 209.39 227.07 202.07 226.15 195.52
  C 223.99 180.10 205.25 174.13 194.22 185.44
  A 0.29 0.29 0.0 0 1 193.72 185.23
  L 193.73 168.18
  A 0.69 0.68 -90.0 0 1 194.41 167.49
  Q 221.53 167.49 248.25 167.56
  Q 254.06 167.58 260.28 170.39
  Z
  M 251.60 200.70
  A 7.08 7.08 0.0 0 0 244.52 193.62
  A 7.08 7.08 0.0 0 0 237.44 200.70
  A 7.08 7.08 0.0 0 0 244.52 207.78
  A 7.08 7.08 0.0 0 0 251.60 200.70
  Z"
/>
<circle fill="#effcfd" cx="293.90" cy="186.28" r="7.60"/>
<circle fill="#7b15e1" cx="207.88" cy="198.03" r="7.96"/>
<circle fill="#061d53" cx="244.52" cy="200.70" r="7.08"/>
<path fill="#061d53" d="
  M 179.86 211.18
  Q 182.39 212.46 178.96 213.33
  A 1.72 1.72 0.0 0 0 177.68 215.23
  Q 177.83 216.30 177.11 217.17
  Q 176.56 217.83 177.39 217.64
  Q 177.52 217.61 177.65 217.67
  Q 177.80 217.74 177.76 217.90
  Q 177.68 218.26 177.38 218.44
  Q 176.84 218.75 177.44 218.60
  Q 177.76 218.52 178.08 218.63
  Q 178.71 218.83 178.40 219.41
  Q 177.80 220.53 177.81 221.84
  A 1.01 0.97 23.0 0 0 178.09 222.50
  Q 178.52 222.93 178.41 223.59
  Q 178.32 224.14 177.78 224.02
  Q 177.30 223.92 176.92 224.25
  Q 176.47 224.63 176.22 224.08
  Q 176.15 223.95 176.01 223.90
  Q 175.70 223.79 175.60 224.11
  L 175.50 224.43
  Q 163.57 216.68 152.86 223.89
  C 147.15 227.74 143.84 233.64 144.06 240.49
  Q 144.54 255.10 158.46 259.76
  Q 157.41 260.47 156.35 259.53
  A 0.59 0.59 0.0 0 0 155.43 259.71
  Q 155.14 260.28 155.58 260.70
  Q 155.84 260.94 155.50 261.06
  L 154.22 261.50
  Q 153.65 261.70 153.44 261.14
  Q 152.71 259.19 150.92 258.84
  Q 150.76 258.81 150.69 258.67
  Q 150.61 258.53 150.64 258.39
  Q 150.82 257.53 150.06 257.97
  Q 149.03 258.56 147.91 258.38
  Q 147.04 258.25 146.95 259.12
  Q 146.88 259.87 146.16 260.10
  Q 145.77 260.22 145.54 260.56
  Q 144.78 261.67 142.77 261.03
  Q 135.69 253.57 134.80 243.52
  Q 133.67 230.96 142.35 220.85
  Q 150.73 211.10 163.75 211.09
  Q 171.71 211.08 179.86 211.18
  Z"
/>
<path fill="#7b15e1" d="
  M 175.50 224.43
  Q 182.86 230.14 183.81 238.86
  A 0.56 0.55 86.5 0 0 184.36 239.35
  L 213.71 239.25
  Q 213.43 239.83 213.98 240.13
  Q 214.35 240.33 214.39 240.51
  Q 214.46 240.79 214.21 241.14
  Q 206.48 241.51 206.76 249.43
  A 0.75 0.75 0.0 0 1 206.01 250.21
  L 182.32 250.30
  A 1.71 1.69 -72.3 0 0 180.93 251.03
  Q 172.96 262.72 158.46 259.76
  Q 144.54 255.10 144.06 240.49
  C 143.84 233.64 147.15 227.74 152.86 223.89
  Q 163.57 216.68 175.50 224.43
  Z
  M 166.3893 251.1632
  A 10.82 10.66 76.1 0 0 174.1378 238.0992
  A 10.82 10.66 76.1 0 0 161.1907 230.1568
  A 10.82 10.66 76.1 0 0 153.4422 243.2208
  A 10.82 10.66 76.1 0 0 166.3893 251.1632
  Z"
/>
<ellipse fill="#061d53" cx="0.00" cy="0.00" transform="translate(163.79,240.66) rotate(76.1)" rx="10.82" ry="10.66"/>
<path fill="#4268f4" d="
  M 294.24 229.98
  Q 294.55 229.93 294.67 230.33
  Q 294.87 231.01 295.56 230.87
  Q 295.85 230.81 296.11 230.97
  Q 296.64 231.30 296.66 231.88
  Q 296.66 232.13 296.48 232.29
  Q 296.04 232.68 296.32 233.19
  Q 296.50 233.53 296.82 233.70
  Q 297.30 233.98 296.80 234.24
  Q 296.51 234.39 296.78 234.70
  A 0.62 0.62 0.0 0 1 296.48 235.72
  Q 294.62 236.20 293.52 237.43
  Q 293.24 237.74 293.38 238.14
  Q 294.19 240.43 292.85 242.11
  Q 292.53 242.50 292.94 242.80
  Q 293.06 242.89 293.21 242.87
  Q 294.02 242.76 293.30 243.16
  Q 290.34 244.81 287.64 246.91
  Q 283.09 249.35 277.50 249.85
  Q 268.40 250.65 260.05 250.28
  L 220.99 250.29
  Q 220.49 250.29 220.49 249.79
  C 220.44 245.22 219.31 241.45 214.21 241.14
  Q 214.46 240.79 214.39 240.51
  Q 214.35 240.33 213.98 240.13
  Q 213.43 239.83 213.71 239.25
  Q 239.21 239.27 264.72 239.23
  Q 274.69 239.21 279.63 237.79
  Q 287.65 235.47 294.24 229.98
  Z"
/>
<path fill="#061d53" d="
  M 302.95 237.24
  Q 302.82 238.51 301.97 239.62
  Q 301.68 240.01 301.72 240.49
  Q 301.81 241.44 302.73 241.77
  Q 303.04 241.88 303.18 242.18
  Q 303.47 242.76 303.89 243.28
  Q 304.22 243.68 304.72 243.79
  Q 304.99 243.85 305.03 244.13
  Q 305.10 244.56 305.44 244.84
  Q 307.20 246.30 309.12 247.71
  Q 311.92 249.76 312.22 252.67
  Q 312.51 255.49 312.56 258.54
  Q 312.58 259.43 313.10 259.97
  A 1.86 1.78 -76.7 0 1 313.53 260.70
  Q 314.77 264.75 314.10 268.83
  A 0.82 0.81 -14.7 0 1 313.79 269.35
  Q 312.58 270.25 312.61 269.37
  Q 312.72 270.21 312.46 271.06
  Q 307.50 264.66 301.72 259.09
  Q 300.89 258.29 299.32 257.49
  Q 298.06 256.85 296.86 255.92
  C 291.49 250.20 282.09 253.24 283.43 261.85
  Q 282.53 260.42 282.63 258.62
  Q 282.65 258.32 282.36 258.41
  L 282.00 258.52
  Q 281.80 258.58 281.84 258.79
  Q 282.21 260.71 280.31 261.18
  Q 277.54 261.87 274.35 260.44
  Q 271.85 259.31 269.40 258.64
  C 265.86 257.66 262.23 258.39 258.61 258.23
  A 1.24 1.24 0.0 0 1 257.61 256.35
  Q 259.34 253.52 260.05 250.28
  Q 268.40 250.65 277.50 249.85
  Q 283.09 249.35 287.64 246.91
  Q 296.53 243.88 302.95 237.24
  Z"
/>
<path fill="#04113a" d="
  M 214.21 241.14
  C 219.31 241.45 220.44 245.22 220.49 249.79
  Q 220.49 250.29 220.99 250.29
  L 260.05 250.28
  Q 259.34 253.52 257.61 256.35
  A 1.24 1.24 0.0 0 0 258.61 258.23
  C 262.23 258.39 265.86 257.66 269.40 258.64
  Q 271.85 259.31 274.35 260.44
  Q 277.54 261.87 280.31 261.18
  Q 282.21 260.71 281.84 258.79
  Q 281.80 258.58 282.00 258.52
  L 282.36 258.41
  Q 282.65 258.32 282.63 258.62
  Q 282.53 260.42 283.43 261.85
  Q 285.87 269.06 293.66 267.41
  Q 304.14 276.15 309.68 288.75
  Q 310.71 291.10 310.58 293.76
  Q 310.31 299.41 315.90 299.34
  Q 318.79 299.31 320.10 297.36
  Q 329.61 283.28 343.63 275.27
  Q 349.34 289.07 349.70 305.03
  L 330.04 304.90
  L 294.07 304.85
  L 288.14 304.97
  Q 287.35 304.99 287.29 304.20
  Q 286.02 286.20 272.81 275.68
  C 266.07 270.30 257.15 268.07 248.09 268.10
  Q 221.53 268.20 194.29 268.05
  Q 193.65 268.04 193.65 268.68
  L 193.71 284.50
  A 1.08 1.07 -89.7 0 1 192.63 285.58
  L 184.99 285.48
  Q 185.01 277.54 184.69 273.50
  C 184.20 267.17 175.53 266.38 174.98 273.00
  Q 174.57 278.00 175.31 285.49
  L 150.76 285.52
  L 150.59 267.77
  Q 150.58 267.29 150.20 266.99
  L 142.77 261.03
  Q 144.78 261.67 145.54 260.56
  Q 145.77 260.22 146.16 260.10
  Q 146.88 259.87 146.95 259.12
  Q 147.04 258.25 147.91 258.38
  Q 149.03 258.56 150.06 257.97
  Q 150.82 257.53 150.64 258.39
  Q 150.61 258.53 150.69 258.67
  Q 150.76 258.81 150.92 258.84
  Q 152.71 259.19 153.44 261.14
  Q 153.65 261.70 154.22 261.50
  L 155.50 261.06
  Q 155.84 260.94 155.58 260.70
  Q 155.14 260.28 155.43 259.71
  A 0.59 0.59 0.0 0 1 156.35 259.53
  Q 157.41 260.47 158.46 259.76
  Q 172.96 262.72 180.93 251.03
  A 1.71 1.69 -72.3 0 1 182.32 250.30
  L 206.01 250.21
  A 0.75 0.75 0.0 0 0 206.76 249.43
  Q 206.48 241.51 214.21 241.14
  Z"
/>
<path fill="#effcfd" d="
  M 296.86 255.92
  C 298.29 260.31 298.00 265.05 293.66 267.41
  Q 285.87 269.06 283.43 261.85
  C 282.09 253.24 291.49 250.20 296.86 255.92
  Z"
/>
<path fill="#17c3fb" d="
  M 312.46 271.06
  L 317.91 280.00
  A 0.74 0.74 0.0 0 0 319.10 280.11
  Q 327.32 270.98 338.12 265.26
  L 343.63 275.27
  Q 329.61 283.28 320.10 297.36
  Q 318.79 299.31 315.90 299.34
  Q 310.31 299.41 310.58 293.76
  Q 310.71 291.10 309.68 288.75
  Q 304.14 276.15 293.66 267.41
  C 298.00 265.05 298.29 260.31 296.86 255.92
  Q 298.06 256.85 299.32 257.49
  Q 300.89 258.29 301.72 259.09
  Q 307.50 264.66 312.46 271.06
  Z"
/>
<path fill="#effcfd" d="
  M 294.07 304.85
  Q 294.84 306.07 295.13 307.79
  Q 295.33 308.97 295.72 310.04
  Q 296.19 311.33 295.62 312.57
  Q 295.45 312.95 295.61 313.34
  Q 295.78 313.77 295.52 314.16
  Q 295.25 314.57 295.68 314.80
  Q 296.34 315.17 296.82 315.75
  Q 297.25 316.28 296.58 316.39
  L 294.77 316.71
  L 286.66 316.69
  A 0.76 0.75 9.0 0 0 285.94 317.21
  Q 284.03 322.94 280.09 327.68
  Q 267.17 343.22 246.76 343.18
  Q 229.52 343.14 210.06 343.19
  A 0.49 0.48 -4.9 0 1 209.58 342.79
  C 205.86 322.64 185.08 313.14 168.07 325.45
  A 1.62 1.57 -62.4 0 1 167.19 325.74
  L 150.78 325.97
  C 151.32 321.10 152.70 316.76 150.97 311.78
  Q 168.27 311.75 185.16 311.73
  Q 187.59 311.73 189.85 311.43
  C 192.05 311.13 195.39 310.47 197.32 311.79
  C 204.68 316.83 214.66 316.19 220.87 310.23
  C 230.90 300.60 226.45 282.35 212.91 278.87
  Q 206.31 277.17 199.32 280.68
  C 194.24 283.23 191.06 289.61 190.35 294.91
  Q 190.27 295.49 189.69 295.49
  L 150.33 295.56
  L 150.76 285.52
  L 175.31 285.49
  L 184.99 285.48
  L 192.63 285.58
  A 1.08 1.07 -89.7 0 0 193.71 284.50
  L 193.65 268.68
  Q 193.65 268.04 194.29 268.05
  Q 221.53 268.20 248.09 268.10
  C 257.15 268.07 266.07 270.30 272.81 275.68
  Q 286.02 286.20 287.29 304.20
  Q 287.35 304.99 288.14 304.97
  L 294.07 304.85
  Z
  M 251.1398 304.2274
  A 7.14 6.99 -25.4 0 0 241.6917 300.9757
  A 7.14 6.99 -25.4 0 0 238.2402 310.3526
  A 7.14 6.99 -25.4 0 0 247.6883 313.6043
  A 7.14 6.99 -25.4 0 0 251.1398 304.2274
  Z"
/>
<path fill="#4757ed" d="
  M 184.99 285.48
  L 175.31 285.49
  Q 174.57 278.00 174.98 273.00
  C 175.53 266.38 184.20 267.17 184.69 273.50
  Q 185.01 277.54 184.99 285.48
  Z"
/>
<path fill="#04113a" d="
  M 150.97 311.78
  L 150.33 295.56
  L 189.69 295.49
  Q 190.27 295.49 190.35 294.91
  C 191.06 289.61 194.24 283.23 199.32 280.68
  Q 206.31 277.17 212.91 278.87
  C 226.45 282.35 230.90 300.60 220.87 310.23
  C 214.66 316.19 204.68 316.83 197.32 311.79
  C 195.39 310.47 192.05 311.13 189.85 311.43
  Q 187.59 311.73 185.16 311.73
  Q 168.27 311.75 150.97 311.78
  Z
  M 216.04 296.64
  A 7.98 7.98 0.0 0 0 208.06 288.66
  A 7.98 7.98 0.0 0 0 200.08 296.64
  A 7.98 7.98 0.0 0 0 208.06 304.62
  A 7.98 7.98 0.0 0 0 216.04 296.64
  Z"
/>
<circle fill="#7b15e1" cx="208.06" cy="296.64" r="7.98"/>
<ellipse fill="#04113a" cx="0.00" cy="0.00" transform="translate(244.69,307.29) rotate(-25.4)" rx="7.14" ry="6.99"/>
<path fill="#aaeffc" d="
  M 330.04 304.90
  Q 331.06 305.04 331.32 305.92
  Q 331.48 306.45 331.01 306.74
  Q 330.67 306.96 330.53 307.32
  Q 330.36 307.74 330.47 308.18
  C 330.92 309.85 330.29 311.22 330.54 312.87
  Q 330.79 314.52 331.21 315.82
  Q 331.40 316.39 330.79 316.35
  Q 329.38 316.26 328.19 316.61
  L 294.77 316.71
  L 296.58 316.39
  Q 297.25 316.28 296.82 315.75
  Q 296.34 315.17 295.68 314.80
  Q 295.25 314.57 295.52 314.16
  Q 295.78 313.77 295.61 313.34
  Q 295.45 312.95 295.62 312.57
  Q 296.19 311.33 295.72 310.04
  Q 295.33 308.97 295.13 307.79
  Q 294.84 306.07 294.07 304.85
  L 330.04 304.90
  Z"
/>
<path fill="#17c3fb" d="
  M 349.70 305.03
  L 349.21 316.37
  L 328.19 316.61
  Q 329.38 316.26 330.79 316.35
  Q 331.40 316.39 331.21 315.82
  Q 330.79 314.52 330.54 312.87
  C 330.29 311.22 330.92 309.85 330.47 308.18
  Q 330.36 307.74 330.53 307.32
  Q 330.67 306.96 331.01 306.74
  Q 331.48 306.45 331.32 305.92
  Q 331.06 305.04 330.04 304.90
  L 349.70 305.03
  Z"
/>
<path fill="#04113a" d="
  M 349.21 316.37
  Q 347.27 331.21 340.01 344.73
  C 328.28 366.58 307.88 382.91 283.45 387.88
  Q 277.47 389.09 269.93 389.04
  Q 211.07 388.64 152.39 389.09
  A 1.26 1.26 0.0 0 1 151.12 387.84
  L 150.78 325.97
  L 167.19 325.74
  A 1.62 1.57 -62.4 0 0 168.07 325.45
  C 185.08 313.14 205.86 322.64 209.58 342.79
  A 0.49 0.48 -4.9 0 0 210.06 343.19
  Q 229.52 343.14 246.76 343.18
  Q 267.17 343.22 280.09 327.68
  Q 284.03 322.94 285.94 317.21
  A 0.76 0.75 9.0 0 1 286.66 316.69
  L 294.77 316.71
  L 328.19 316.61
  L 349.21 316.37
  Z
  M 279.04 376.35
  C 299.01 370.87 313.66 359.32 324.95 342.40
  Q 326.02 340.80 327.51 339.23
  C 332.43 334.05 327.57 325.84 320.71 329.44
  C 319.42 330.11 318.76 330.89 317.14 330.86
  Q 310.11 330.75 303.89 331.03
  C 297.24 331.33 293.24 335.76 288.89 340.16
  Q 280.61 348.55 269.27 351.59
  Q 262.93 353.29 250.89 353.07
  Q 229.99 352.69 209.36 353.04
  A 1.49 1.49 0.0 0 0 207.98 354.00
  Q 206.07 358.99 201.96 363.25
  A 0.50 0.50 0.0 0 0 202.32 364.10
  Q 230.96 364.12 261.87 364.02
  Q 272.04 363.99 282.10 359.28
  C 290.91 355.16 297.10 350.01 303.44 343.24
  Q 304.76 341.83 306.68 341.80
  L 308.73 341.77
  Q 311.11 341.74 309.66 343.63
  Q 308.17 345.59 306.37 347.41
  Q 295.85 358.09 282.00 363.61
  C 278.20 365.12 272.79 363.72 271.68 369.32
  Q 271.16 371.94 272.45 373.81
  Q 274.95 377.48 279.04 376.35
  Z
  M 185.1005 361.0215
  A 15.38 15.15 85.0 0 0 198.8523 344.3796
  A 15.38 15.15 85.0 0 0 182.4195 330.3785
  A 15.38 15.15 85.0 0 0 168.6677 347.0204
  A 15.38 15.15 85.0 0 0 185.1005 361.0215
  Z"
/>
<path fill="#17c3fb" d="
  M 279.04 376.35
  Q 274.95 377.48 272.45 373.81
  Q 271.16 371.94 271.68 369.32
  C 272.79 363.72 278.20 365.12 282.00 363.61
  Q 295.85 358.09 306.37 347.41
  Q 308.17 345.59 309.66 343.63
  Q 311.11 341.74 308.73 341.77
  L 306.68 341.80
  Q 304.76 341.83 303.44 343.24
  C 297.10 350.01 290.91 355.16 282.10 359.28
  Q 272.04 363.99 261.87 364.02
  Q 230.96 364.12 202.32 364.10
  A 0.50 0.50 0.0 0 1 201.96 363.25
  Q 206.07 358.99 207.98 354.00
  A 1.49 1.49 0.0 0 1 209.36 353.04
  Q 229.99 352.69 250.89 353.07
  Q 262.93 353.29 269.27 351.59
  Q 280.61 348.55 288.89 340.16
  C 293.24 335.76 297.24 331.33 303.89 331.03
  Q 310.11 330.75 317.14 330.86
  C 318.76 330.89 319.42 330.11 320.71 329.44
  C 327.57 325.84 332.43 334.05 327.51 339.23
  Q 326.02 340.80 324.95 342.40
  C 313.66 359.32 299.01 370.87 279.04 376.35
  Z"
/>
<path fill="#effcfd" d="
  M 185.1005 361.0215
  A 15.38 15.15 85.0 0 1 168.6677 347.0204
  A 15.38 15.15 85.0 0 1 182.4195 330.3785
  A 15.38 15.15 85.0 0 1 198.8523 344.3796
  A 15.38 15.15 85.0 0 1 185.1005 361.0215
  Z
  M 190.23 345.74
  A 6.45 6.45 0.0 0 0 183.78 339.29
  A 6.45 6.45 0.0 0 0 177.33 345.74
  A 6.45 6.45 0.0 0 0 183.78 352.19
  A 6.45 6.45 0.0 0 0 190.23 345.74
  Z"
/>
<circle fill="#04113a" cx="183.78" cy="345.74" r="6.45"/>
</svg>
